<?xml version="1.0" encoding="UTF-8"?>
<!--Generator: Apple Native CoreSVG 123-->
<!DOCTYPE svg
PUBLIC "-//W3C//DTD SVG 1.1//EN"
       "http://www.w3.org/Graphics/SVG/1.1/DTD/svg11.dtd">
<svg version="1.1" xmlns="http://www.w3.org/2000/svg" xmlns:xlink="http://www.w3.org/1999/xlink" width="3300" height="2200">
 <!--glyph: "uni1000DD.medium", point size: 100.000000, font version: "Version 15.0d7e11", template writer version: "5"-->
 <g id="Notes">
  <rect height="2200" id="artboard" style="fill:white;opacity:1" width="3300" x="0" y="0"/>
  <line id="" style="fill:none;stroke:black;opacity:1;stroke-width:0.5;" x1="263" x2="3036" y1="292" y2="292"/>
  <text style="stroke:none;fill:black;font-family:-apple-system,&quot;SF Pro Display&quot;,&quot;SF Pro Text&quot;,Helvetica,sans-serif;font-weight:bold;" transform="matrix(1 0 0 1 263 322)">Weight/Scale Variations</text>
  <text style="stroke:none;fill:black;font-family:-apple-system,&quot;SF Pro Display&quot;,&quot;SF Pro Text&quot;,Helvetica,sans-serif;text-anchor:middle;" transform="matrix(1 0 0 1 559.711 322)">Ultralight</text>
  <text style="stroke:none;fill:black;font-family:-apple-system,&quot;SF Pro Display&quot;,&quot;SF Pro Text&quot;,Helvetica,sans-serif;text-anchor:middle;" transform="matrix(1 0 0 1 856.422 322)">Thin</text>
  <text style="stroke:none;fill:black;font-family:-apple-system,&quot;SF Pro Display&quot;,&quot;SF Pro Text&quot;,Helvetica,sans-serif;text-anchor:middle;" transform="matrix(1 0 0 1 1153.13 322)">Light</text>
  <text style="stroke:none;fill:black;font-family:-apple-system,&quot;SF Pro Display&quot;,&quot;SF Pro Text&quot;,Helvetica,sans-serif;text-anchor:middle;" transform="matrix(1 0 0 1 1449.84 322)">Regular</text>
  <text style="stroke:none;fill:black;font-family:-apple-system,&quot;SF Pro Display&quot;,&quot;SF Pro Text&quot;,Helvetica,sans-serif;text-anchor:middle;" transform="matrix(1 0 0 1 1746.56 322)">Medium</text>
  <text style="stroke:none;fill:black;font-family:-apple-system,&quot;SF Pro Display&quot;,&quot;SF Pro Text&quot;,Helvetica,sans-serif;text-anchor:middle;" transform="matrix(1 0 0 1 2043.27 322)">Semibold</text>
  <text style="stroke:none;fill:black;font-family:-apple-system,&quot;SF Pro Display&quot;,&quot;SF Pro Text&quot;,Helvetica,sans-serif;text-anchor:middle;" transform="matrix(1 0 0 1 2339.98 322)">Bold</text>
  <text style="stroke:none;fill:black;font-family:-apple-system,&quot;SF Pro Display&quot;,&quot;SF Pro Text&quot;,Helvetica,sans-serif;text-anchor:middle;" transform="matrix(1 0 0 1 2636.69 322)">Heavy</text>
  <text style="stroke:none;fill:black;font-family:-apple-system,&quot;SF Pro Display&quot;,&quot;SF Pro Text&quot;,Helvetica,sans-serif;text-anchor:middle;" transform="matrix(1 0 0 1 2933.4 322)">Black</text>
  <line id="" style="fill:none;stroke:black;opacity:1;stroke-width:0.5;" x1="263" x2="3036" y1="1903" y2="1903"/>
  <g id="" transform="matrix(1 0 0 1 263 1933)">
   <path d="M 9.24805 0.830078 C 13.5547 0.830078 17.1387 -2.74414 17.1387 -7.05078 C 17.1387 -11.3574 13.5449 -14.9316 9.23828 -14.9316 C 4.94141 -14.9316 1.36719 -11.3574 1.36719 -7.05078 C 1.36719 -2.74414 4.95117 0.830078 9.24805 0.830078 Z M 9.24805 -0.654297 C 5.70312 -0.654297 2.87109 -3.49609 2.87109 -7.05078 C 2.87109 -10.6055 5.69336 -13.4473 9.23828 -13.4473 C 12.793 -13.4473 15.6348 -10.6055 15.6445 -7.05078 C 15.6543 -3.49609 12.8027 -0.654297 9.24805 -0.654297 Z M 9.22852 -3.42773 C 9.69727 -3.42773 9.9707 -3.74023 9.9707 -4.25781 L 9.9707 -6.31836 L 12.1973 -6.31836 C 12.6953 -6.31836 13.0371 -6.57227 13.0371 -7.04102 C 13.0371 -7.51953 12.7148 -7.7832 12.1973 -7.7832 L 9.9707 -7.7832 L 9.9707 -10.0098 C 9.9707 -10.5273 9.69727 -10.8496 9.22852 -10.8496 C 8.75977 -10.8496 8.50586 -10.5078 8.50586 -10.0098 L 8.50586 -7.7832 L 6.29883 -7.7832 C 5.78125 -7.7832 5.44922 -7.51953 5.44922 -7.04102 C 5.44922 -6.57227 5.80078 -6.31836 6.29883 -6.31836 L 8.50586 -6.31836 L 8.50586 -4.25781 C 8.50586 -3.75977 8.75977 -3.42773 9.22852 -3.42773 Z"/>
  </g>
  <g id="" transform="matrix(1 0 0 1 281.506 1933)">
   <path d="M 11.709 2.91016 C 17.1582 2.91016 21.6699 -1.60156 21.6699 -7.05078 C 21.6699 -12.4902 17.1484 -17.0117 11.6992 -17.0117 C 6.25977 -17.0117 1.74805 -12.4902 1.74805 -7.05078 C 1.74805 -1.60156 6.26953 2.91016 11.709 2.91016 Z M 11.709 1.25 C 7.09961 1.25 3.41797 -2.44141 3.41797 -7.05078 C 3.41797 -11.6504 7.08984 -15.3516 11.6992 -15.3516 C 16.3086 -15.3516 20 -11.6504 20.0098 -7.05078 C 20.0195 -2.44141 16.3184 1.25 11.709 1.25 Z M 11.6895 -2.41211 C 12.207 -2.41211 12.5195 -2.77344 12.5195 -3.33984 L 12.5195 -6.23047 L 15.5762 -6.23047 C 16.123 -6.23047 16.5039 -6.51367 16.5039 -7.03125 C 16.5039 -7.55859 16.1426 -7.86133 15.5762 -7.86133 L 12.5195 -7.86133 L 12.5195 -10.9277 C 12.5195 -11.5039 12.207 -11.8555 11.6895 -11.8555 C 11.1719 -11.8555 10.8789 -11.4844 10.8789 -10.9277 L 10.8789 -7.86133 L 7.83203 -7.86133 C 7.26562 -7.86133 6.89453 -7.55859 6.89453 -7.03125 C 6.89453 -6.51367 7.28516 -6.23047 7.83203 -6.23047 L 10.8789 -6.23047 L 10.8789 -3.33984 C 10.8789 -2.79297 11.1719 -2.41211 11.6895 -2.41211 Z"/>
  </g>
  <g id="" transform="matrix(1 0 0 1 304.924 1933)">
   <path d="M 14.9707 5.67383 C 21.9336 5.67383 27.6953 -0.078125 27.6953 -7.04102 C 27.6953 -14.0039 21.9238 -19.7559 14.9609 -19.7559 C 8.00781 -19.7559 2.25586 -14.0039 2.25586 -7.04102 C 2.25586 -0.078125 8.01758 5.67383 14.9707 5.67383 Z M 14.9707 3.85742 C 8.93555 3.85742 4.08203 -1.00586 4.08203 -7.04102 C 4.08203 -13.0762 8.92578 -17.9395 14.9609 -17.9395 C 21.0059 -17.9395 25.8594 -13.0762 25.8691 -7.04102 C 25.8789 -1.00586 21.0156 3.85742 14.9707 3.85742 Z M 14.9512 -1.06445 C 15.5176 -1.06445 15.8691 -1.45508 15.8691 -2.06055 L 15.8691 -6.13281 L 20.1074 -6.13281 C 20.6934 -6.13281 21.1133 -6.46484 21.1133 -7.02148 C 21.1133 -7.59766 20.7227 -7.93945 20.1074 -7.93945 L 15.8691 -7.93945 L 15.8691 -12.1875 C 15.8691 -12.8027 15.5176 -13.1934 14.9512 -13.1934 C 14.3848 -13.1934 14.0625 -12.7832 14.0625 -12.1875 L 14.0625 -7.93945 L 9.83398 -7.93945 C 9.21875 -7.93945 8.80859 -7.59766 8.80859 -7.02148 C 8.80859 -6.46484 9.23828 -6.13281 9.83398 -6.13281 L 14.0625 -6.13281 L 14.0625 -2.06055 C 14.0625 -1.47461 14.3848 -1.06445 14.9512 -1.06445 Z"/>
  </g>
  <text style="stroke:none;fill:black;font-family:-apple-system,&quot;SF Pro Display&quot;,&quot;SF Pro Text&quot;,Helvetica,sans-serif;font-weight:bold;" transform="matrix(1 0 0 1 263 1953)">Design Variations</text>
  <text style="stroke:none;fill:black;font-family:-apple-system,&quot;SF Pro Display&quot;,&quot;SF Pro Text&quot;,Helvetica,sans-serif;" transform="matrix(1 0 0 1 263 1971)">Symbols are supported in up to nine weights and three scales.</text>
  <text style="stroke:none;fill:black;font-family:-apple-system,&quot;SF Pro Display&quot;,&quot;SF Pro Text&quot;,Helvetica,sans-serif;" transform="matrix(1 0 0 1 263 1989)">For optimal layout with text and other symbols, vertically align</text>
  <text style="stroke:none;fill:black;font-family:-apple-system,&quot;SF Pro Display&quot;,&quot;SF Pro Text&quot;,Helvetica,sans-serif;" transform="matrix(1 0 0 1 263 2007)">symbols with the adjacent text.</text>
  <rect height="14" id="" style="fill:#00AEEF;stroke:none;opacity:0.4;" width="3" x="776" y="1919"/>
  <g id="" transform="matrix(1 0 0 1 779 1933)">
   <path d="M 10.5273 0 L 12.373 0 L 7.17773 -14.0918 L 5.43945 -14.0918 L 0.244141 0 L 2.08984 0 L 3.50586 -4.0332 L 9.11133 -4.0332 Z M 6.2793 -11.9531 L 6.33789 -11.9531 L 8.59375 -5.52734 L 4.02344 -5.52734 Z"/>
  </g>
  <rect height="14" id="" style="fill:#00AEEF;stroke:none;opacity:0.4;" width="3" x="791.617" y="1919"/>
  <text style="stroke:none;fill:black;font-family:-apple-system,&quot;SF Pro Display&quot;,&quot;SF Pro Text&quot;,Helvetica,sans-serif;font-weight:bold;" transform="matrix(1 0 0 1 776 1953)">Margins</text>
  <text style="stroke:none;fill:black;font-family:-apple-system,&quot;SF Pro Display&quot;,&quot;SF Pro Text&quot;,Helvetica,sans-serif;" transform="matrix(1 0 0 1 776 1971)">Leading and trailing margins on the left and right side of each symbol</text>
  <text style="stroke:none;fill:black;font-family:-apple-system,&quot;SF Pro Display&quot;,&quot;SF Pro Text&quot;,Helvetica,sans-serif;" transform="matrix(1 0 0 1 776 1989)">can be adjusted by modifying the width of the blue rectangles.</text>
  <text style="stroke:none;fill:black;font-family:-apple-system,&quot;SF Pro Display&quot;,&quot;SF Pro Text&quot;,Helvetica,sans-serif;" transform="matrix(1 0 0 1 776 2007)">Modifications are automatically applied proportionally to all</text>
  <text style="stroke:none;fill:black;font-family:-apple-system,&quot;SF Pro Display&quot;,&quot;SF Pro Text&quot;,Helvetica,sans-serif;" transform="matrix(1 0 0 1 776 2025)">scales and weights.</text>
  <g id="" transform="matrix(1 0 0 1 1289 1933)">
   <path d="M 2.83203 3.11523 L 4.375 4.6582 C 5.22461 5.48828 6.19141 5.41992 7.06055 4.46289 L 17.2754 -6.66016 C 17.7051 -6.36719 18.0957 -6.37695 18.5645 -6.47461 L 19.6094 -6.68945 L 20.3027 -5.99609 L 20.2539 -5.47852 C 20.1855 -4.95117 20.3516 -4.53125 20.8496 -4.0332 L 21.6602 -3.22266 C 22.168 -2.71484 22.8223 -2.68555 23.3008 -3.16406 L 26.5527 -6.41602 C 27.0312 -6.89453 27.0117 -7.54883 26.5039 -8.05664 L 25.6836 -8.87695 C 25.1855 -9.375 24.7754 -9.55078 24.2383 -9.47266 L 23.7109 -9.41406 L 23.0566 -10.0781 L 23.3398 -11.2207 C 23.4863 -11.7871 23.3398 -12.2559 22.7148 -12.8613 L 20.3027 -15.2539 C 16.7578 -18.7793 12.2266 -18.6719 9.11133 -15.5371 C 8.69141 -15.1074 8.64258 -14.5215 8.91602 -14.0918 C 9.15039 -13.7207 9.62891 -13.4961 10.2734 -13.6621 C 11.7871 -14.043 13.3008 -13.9258 14.7852 -12.9199 L 14.1602 -11.3379 C 13.9258 -10.752 13.9453 -10.2734 14.1797 -9.83398 L 3.01758 0.439453 C 2.08008 1.30859 1.97266 2.25586 2.83203 3.11523 Z M 10.6738 -15.1465 C 13.3398 -17.1387 16.6504 -16.8262 19.0527 -14.4141 L 21.6797 -11.8066 C 21.9141 -11.5723 21.9434 -11.3867 21.8848 -11.0938 L 21.5039 -9.53125 L 23.0762 -7.95898 L 24.043 -8.04688 C 24.3262 -8.07617 24.4141 -8.05664 24.6387 -7.83203 L 25.2637 -7.20703 L 22.5098 -4.46289 L 21.8848 -5.07812 C 21.6602 -5.30273 21.6406 -5.40039 21.6699 -5.68359 L 21.7578 -6.64062 L 20.1953 -8.20312 L 18.5742 -7.89062 C 18.291 -7.83203 18.1445 -7.83203 17.9102 -8.07617 L 15.7324 -10.2539 C 15.5078 -10.4883 15.4785 -10.625 15.6055 -10.9473 L 16.5527 -13.2227 C 14.9512 -14.7559 12.8418 -15.6055 10.8008 -14.9512 C 10.7129 -14.9219 10.6445 -14.9414 10.6152 -14.9805 C 10.5859 -15.0293 10.5859 -15.0781 10.6738 -15.1465 Z M 4.10156 2.41211 C 3.61328 1.91406 3.78906 1.61133 4.12109 1.30859 L 15.0781 -8.80859 L 16.3086 -7.57812 L 6.15234 3.34961 C 5.84961 3.68164 5.46875 3.7793 5.06836 3.37891 Z"/>
  </g>
  <text style="stroke:none;fill:black;font-family:-apple-system,&quot;SF Pro Display&quot;,&quot;SF Pro Text&quot;,Helvetica,sans-serif;font-weight:bold;" transform="matrix(1 0 0 1 1289 1953)">Exporting</text>
  <text style="stroke:none;fill:black;font-family:-apple-system,&quot;SF Pro Display&quot;,&quot;SF Pro Text&quot;,Helvetica,sans-serif;" transform="matrix(1 0 0 1 1289 1971)">Symbols should be outlined when exporting to ensure the</text>
  <text style="stroke:none;fill:black;font-family:-apple-system,&quot;SF Pro Display&quot;,&quot;SF Pro Text&quot;,Helvetica,sans-serif;" transform="matrix(1 0 0 1 1289 1989)">design is preserved when submitting to Xcode.</text>
  <text id="template-version" style="stroke:none;fill:black;font-family:-apple-system,&quot;SF Pro Display&quot;,&quot;SF Pro Text&quot;,Helvetica,sans-serif;text-anchor:end;" transform="matrix(1 0 0 1 3036 1933)">Template v.1.0</text>
  <text style="stroke:none;fill:black;font-family:-apple-system,&quot;SF Pro Display&quot;,&quot;SF Pro Text&quot;,Helvetica,sans-serif;text-anchor:end;" transform="matrix(1 0 0 1 3036 1951)">Generated from plus.square.fill</text>
  <text style="stroke:none;fill:black;font-family:-apple-system,&quot;SF Pro Display&quot;,&quot;SF Pro Text&quot;,Helvetica,sans-serif;text-anchor:end;" transform="matrix(1 0 0 1 3036 1969)">Typeset at 100 points</text>
  <text style="stroke:none;fill:black;font-family:-apple-system,&quot;SF Pro Display&quot;,&quot;SF Pro Text&quot;,Helvetica,sans-serif;" transform="matrix(1 0 0 1 263 726)">Small</text>
  <text style="stroke:none;fill:black;font-family:-apple-system,&quot;SF Pro Display&quot;,&quot;SF Pro Text&quot;,Helvetica,sans-serif;" transform="matrix(1 0 0 1 263 1156)">Medium</text>
  <text style="stroke:none;fill:black;font-family:-apple-system,&quot;SF Pro Display&quot;,&quot;SF Pro Text&quot;,Helvetica,sans-serif;" transform="matrix(1 0 0 1 263 1586)">Large</text>
 </g>
 <g id="Guides">
  <g id="H-reference" style="fill:#27AAE1;stroke:none;" transform="matrix(1 0 0 1 339 696)">
   <path d="M 54.9316 0 L 57.666 0 L 30.5664 -70.459 L 28.0762 -70.459 L 0.976562 0 L 3.66211 0 L 12.9395 -24.4629 L 45.7031 -24.4629 Z M 29.1992 -67.0898 L 29.4434 -67.0898 L 44.8242 -26.709 L 13.8184 -26.709 Z"/>
  </g>
  <line id="Baseline-S" style="fill:none;stroke:#27AAE1;opacity:1;stroke-width:0.577;" x1="263" x2="3036" y1="696" y2="696"/>
  <line id="Capline-S" style="fill:none;stroke:#27AAE1;opacity:1;stroke-width:0.577;" x1="263" x2="3036" y1="625.541" y2="625.541"/>
  <g id="H-reference" style="fill:#27AAE1;stroke:none;" transform="matrix(1 0 0 1 339 1126)">
   <path d="M 54.9316 0 L 57.666 0 L 30.5664 -70.459 L 28.0762 -70.459 L 0.976562 0 L 3.66211 0 L 12.9395 -24.4629 L 45.7031 -24.4629 Z M 29.1992 -67.0898 L 29.4434 -67.0898 L 44.8242 -26.709 L 13.8184 -26.709 Z"/>
  </g>
  <line id="Baseline-M" style="fill:none;stroke:#27AAE1;opacity:1;stroke-width:0.577;" x1="263" x2="3036" y1="1126" y2="1126"/>
  <line id="Capline-M" style="fill:none;stroke:#27AAE1;opacity:1;stroke-width:0.577;" x1="263" x2="3036" y1="1055.54" y2="1055.54"/>
  <g id="H-reference" style="fill:#27AAE1;stroke:none;" transform="matrix(1 0 0 1 339 1556)">
   <path d="M 54.9316 0 L 57.666 0 L 30.5664 -70.459 L 28.0762 -70.459 L 0.976562 0 L 3.66211 0 L 12.9395 -24.4629 L 45.7031 -24.4629 Z M 29.1992 -67.0898 L 29.4434 -67.0898 L 44.8242 -26.709 L 13.8184 -26.709 Z"/>
  </g>
  <line id="Baseline-L" style="fill:none;stroke:#27AAE1;opacity:1;stroke-width:0.577;" x1="263" x2="3036" y1="1556" y2="1556"/>
  <line id="Capline-L" style="fill:none;stroke:#27AAE1;opacity:1;stroke-width:0.577;" x1="263" x2="3036" y1="1485.54" y2="1485.54"/>
  <rect height="119.336" id="left-margin" style="fill:#00AEEF;stroke:none;opacity:0.4;" width="12.4512" x="1392.45" y="1030.79"/>
  <rect height="119.336" id="right-margin" style="fill:#00AEEF;stroke:none;opacity:0.4;" width="12.4512" x="1494.79" y="1030.79"/>
 </g>
 <g id="Symbols">
  <g id="Black-L" transform="matrix(1 0 0 1 2855.62 1556)">
   <path d="M 39.9902 26.5137 L 115.576 26.5137 C 130.811 26.5137 139.502 17.8711 139.502 2.68555 L 139.502 -73.0957 C 139.502 -88.2812 130.811 -96.875 115.576 -96.875 L 39.9902 -96.875 C 24.7559 -96.875 16.0645 -88.2812 16.0645 -73.0957 L 16.0645 2.68555 C 16.0645 17.8711 24.7559 26.5137 39.9902 26.5137 Z M 78.3203 -4.15039 C 73.291 -4.15039 69.7266 -7.76367 69.7266 -12.7441 L 69.7266 -26.5137 L 54.9805 -26.5137 C 50 -26.5137 46.2891 -30.127 46.2891 -35.1074 C 46.2891 -40.1367 49.9512 -43.75 54.9805 -43.75 L 69.7266 -43.75 L 69.7266 -58.0078 C 69.7266 -62.9395 73.291 -66.6016 78.3203 -66.6016 C 83.3496 -66.6016 87.0117 -62.9883 87.0117 -58.0078 L 87.0117 -43.75 L 101.758 -43.75 C 106.836 -43.75 110.4 -40.1367 110.4 -35.1074 C 110.4 -30.127 106.787 -26.5137 101.758 -26.5137 L 87.0117 -26.5137 L 87.0117 -12.7441 C 87.0117 -7.71484 83.3496 -4.15039 78.3203 -4.15039 Z"/>
  </g>
  <g id="Heavy-L" transform="matrix(1 0 0 1 2559.93 1556)">
   <path d="M 38.8184 25.4883 L 114.697 25.4883 C 129.346 25.4883 137.451 17.4316 137.451 2.88086 L 137.451 -73.2422 C 137.451 -87.793 129.346 -95.8496 114.697 -95.8496 L 38.8184 -95.8496 C 24.2188 -95.8496 16.0645 -87.793 16.0645 -73.2422 L 16.0645 2.88086 C 16.0645 17.4316 24.2188 25.4883 38.8184 25.4883 Z M 77.1484 -4.05273 C 72.6074 -4.05273 69.4824 -7.37305 69.4824 -11.8652 L 69.4824 -27.4414 L 52.9785 -27.4414 C 48.4375 -27.4414 45.0684 -30.6152 45.0684 -35.1074 C 45.0684 -39.6973 48.3887 -42.8711 52.9785 -42.8711 L 69.4824 -42.8711 L 69.4824 -59.0332 C 69.4824 -63.5254 72.6074 -66.7969 77.1484 -66.7969 C 81.6895 -66.7969 84.9121 -63.5742 84.9121 -59.0332 L 84.9121 -42.8711 L 101.465 -42.8711 C 106.104 -42.8711 109.326 -39.6973 109.326 -35.1074 C 109.326 -30.6152 106.006 -27.4414 101.465 -27.4414 L 84.9121 -27.4414 L 84.9121 -11.8652 C 84.9121 -7.32422 81.6895 -4.05273 77.1484 -4.05273 Z"/>
  </g>
  <g id="Bold-L" transform="matrix(1 0 0 1 2264.37 1556)">
   <path d="M 37.5 24.3652 L 113.721 24.3652 C 127.637 24.3652 135.156 16.8945 135.156 3.07617 L 135.156 -73.3887 C 135.156 -87.207 127.637 -94.7266 113.721 -94.7266 L 37.5 -94.7266 C 23.6328 -94.7266 16.0645 -87.2559 16.0645 -73.3887 L 16.0645 3.07617 C 16.0645 16.8945 23.6328 24.3652 37.5 24.3652 Z M 75.8789 -4.00391 C 71.8262 -4.00391 69.2383 -6.88477 69.2383 -10.8887 L 69.2383 -28.5156 L 50.7324 -28.5156 C 46.6797 -28.5156 43.75 -31.1523 43.75 -35.1074 C 43.75 -39.1602 46.6309 -41.8457 50.7324 -41.8457 L 69.2383 -41.8457 L 69.2383 -60.1562 C 69.2383 -64.1602 71.8262 -67.0898 75.8789 -67.0898 C 79.834 -67.0898 82.5684 -64.2578 82.5684 -60.1562 L 82.5684 -41.8457 L 101.123 -41.8457 C 105.273 -41.8457 108.057 -39.1602 108.057 -35.1074 C 108.057 -31.1523 105.176 -28.5156 101.123 -28.5156 L 82.5684 -28.5156 L 82.5684 -10.8887 C 82.5684 -6.83594 79.834 -4.00391 75.8789 -4.00391 Z"/>
  </g>
  <g id="Semibold-L" transform="matrix(1 0 0 1 1968.44 1556)">
   <path d="M 36.6211 23.584 L 113.037 23.584 C 126.514 23.584 133.594 16.5039 133.594 3.17383 L 133.594 -73.5352 C 133.594 -86.8164 126.514 -93.9453 113.037 -93.9453 L 36.6211 -93.9453 C 23.1934 -93.9453 16.0645 -86.8652 16.0645 -73.5352 L 16.0645 3.17383 C 16.0645 16.5527 23.1934 23.584 36.6211 23.584 Z M 74.9512 -3.95508 C 71.3379 -3.95508 69.043 -6.5918 69.043 -10.2539 L 69.043 -29.248 L 49.1699 -29.248 C 45.5078 -29.248 42.8223 -31.543 42.8223 -35.1074 C 42.8223 -38.8184 45.4102 -41.1621 49.1699 -41.1621 L 69.043 -41.1621 L 69.043 -60.9375 C 69.043 -64.5996 71.3379 -67.2363 74.9512 -67.2363 C 78.6133 -67.2363 81.0059 -64.6973 81.0059 -60.9375 L 81.0059 -41.1621 L 100.879 -41.1621 C 104.688 -41.1621 107.227 -38.8184 107.227 -35.1074 C 107.227 -31.543 104.59 -29.248 100.879 -29.248 L 81.0059 -29.248 L 81.0059 -10.2539 C 81.0059 -6.49414 78.6133 -3.95508 74.9512 -3.95508 Z"/>
  </g>
  <g id="Medium-L" transform="matrix(1 0 0 1 1672.31 1556)">
   <path d="M 35.9375 22.998 L 112.5 22.998 C 125.635 22.998 132.422 16.2109 132.422 3.27148 L 132.422 -73.6328 C 132.422 -86.5234 125.635 -93.3105 112.5 -93.3105 L 35.9375 -93.3105 C 22.9004 -93.3105 16.0645 -86.5723 16.0645 -73.6328 L 16.0645 3.27148 C 16.0645 16.2598 22.9004 22.998 35.9375 22.998 Z M 74.2676 -3.90625 C 70.8984 -3.90625 68.8965 -6.34766 68.8965 -9.76562 L 68.8965 -29.7852 L 48.0469 -29.7852 C 44.5801 -29.7852 42.0898 -31.8359 42.0898 -35.1074 C 42.0898 -38.5254 44.4824 -40.625 48.0469 -40.625 L 68.8965 -40.625 L 68.8965 -61.5234 C 68.8965 -64.9414 70.8984 -67.3828 74.2676 -67.3828 C 77.6367 -67.3828 79.7852 -65.0391 79.7852 -61.5234 L 79.7852 -40.625 L 100.684 -40.625 C 104.248 -40.625 106.592 -38.5254 106.592 -35.1074 C 106.592 -31.8359 104.15 -29.7852 100.684 -29.7852 L 79.7852 -29.7852 L 79.7852 -9.76562 C 79.7852 -6.25 77.6367 -3.90625 74.2676 -3.90625 Z"/>
  </g>
  <g id="Regular-L" transform="matrix(1 0 0 1 1376.38 1556)">
   <path d="M 35.0586 22.2168 L 111.816 22.2168 C 124.463 22.2168 130.859 15.8691 130.859 3.41797 L 130.859 -73.7305 C 130.859 -86.1816 124.463 -92.5293 111.816 -92.5293 L 35.0586 -92.5293 C 22.4609 -92.5293 16.0645 -86.2305 16.0645 -73.7305 L 16.0645 3.41797 C 16.0645 15.918 22.4609 22.2168 35.0586 22.2168 Z M 73.3887 -3.85742 C 70.3613 -3.85742 68.7012 -6.05469 68.7012 -9.08203 L 68.7012 -30.5176 L 46.4844 -30.5176 C 43.4082 -30.5176 41.1621 -32.1777 41.1621 -35.1074 C 41.1621 -38.1836 43.2617 -39.9414 46.4844 -39.9414 L 68.7012 -39.9414 L 68.7012 -62.3047 C 68.7012 -65.3809 70.3613 -67.5781 73.3887 -67.5781 C 76.3672 -67.5781 78.1738 -65.4785 78.1738 -62.3047 L 78.1738 -39.9414 L 100.439 -39.9414 C 103.711 -39.9414 105.762 -38.1836 105.762 -35.1074 C 105.762 -32.1777 103.564 -30.5176 100.439 -30.5176 L 78.1738 -30.5176 L 78.1738 -9.08203 C 78.1738 -5.9082 76.3672 -3.85742 73.3887 -3.85742 Z"/>
  </g>
  <g id="Light-L" transform="matrix(1 0 0 1 1080.5 1556)">
   <path d="M 34.0332 21.4355 L 111.23 21.4355 C 123.096 21.4355 129.199 15.2344 129.199 3.56445 L 129.199 -73.8281 C 129.199 -85.5469 123.096 -91.6992 111.23 -91.6992 L 34.0332 -91.6992 C 22.168 -91.6992 16.0645 -85.6445 16.0645 -73.8281 L 16.0645 3.56445 C 16.0645 15.3809 22.168 21.4355 34.0332 21.4355 Z M 72.5586 -3.80859 C 70.3125 -3.80859 68.9941 -5.46875 68.9941 -7.71484 L 68.9941 -31.5918 L 44.6289 -31.5918 C 42.3828 -31.5918 40.6738 -32.959 40.6738 -35.1074 C 40.6738 -37.4023 42.2852 -38.8184 44.6289 -38.8184 L 68.9941 -38.8184 L 68.9941 -63.2324 C 68.9941 -65.5273 70.3125 -67.2363 72.5586 -67.2363 C 74.8535 -67.2363 76.2695 -65.625 76.2695 -63.2324 L 76.2695 -38.8184 L 100.635 -38.8184 C 103.027 -38.8184 104.59 -37.4023 104.59 -35.1074 C 104.59 -32.959 102.881 -31.5918 100.635 -31.5918 L 76.2695 -31.5918 L 76.2695 -7.71484 C 76.2695 -5.41992 74.8535 -3.80859 72.5586 -3.80859 Z"/>
  </g>
  <g id="Thin-L" transform="matrix(1 0 0 1 784.889 1556)">
   <path d="M 32.666 20.3613 L 110.352 20.3613 C 121.24 20.3613 127.002 14.4531 127.002 3.75977 L 127.002 -73.9746 C 127.002 -84.7168 121.24 -90.5762 110.352 -90.5762 L 32.666 -90.5762 C 21.7773 -90.5762 16.0645 -84.8633 16.0645 -73.9746 L 16.0645 3.75977 C 16.0645 14.6484 21.7773 20.3613 32.666 20.3613 Z M 71.4355 -3.75977 C 70.2148 -3.75977 69.3848 -4.73633 69.3848 -5.9082 L 69.3848 -33.0566 L 42.1875 -33.0566 C 41.0156 -33.0566 39.9902 -33.9355 39.9902 -35.1074 C 39.9902 -36.4258 40.918 -37.3535 42.1875 -37.3535 L 69.3848 -37.3535 L 69.3848 -64.5508 C 69.3848 -65.7715 70.2148 -66.748 71.4355 -66.748 C 72.8027 -66.748 73.6816 -65.7715 73.6816 -64.5508 L 73.6816 -37.3535 L 100.83 -37.3535 C 102.1 -37.3535 103.076 -36.4258 103.076 -35.1074 C 103.076 -33.9355 102.002 -33.0566 100.83 -33.0566 L 73.6816 -33.0566 L 73.6816 -5.9082 C 73.6816 -4.73633 72.8027 -3.75977 71.4355 -3.75977 Z"/>
  </g>
  <g id="Ultralight-L" transform="matrix(1 0 0 1 488.739 1556)">
   <path d="M 31.9824 19.7754 L 109.961 19.7754 C 120.312 19.7754 125.879 14.0625 125.879 3.85742 L 125.879 -74.0723 C 125.879 -84.2773 120.312 -89.9902 109.961 -89.9902 L 31.9824 -89.9902 C 21.582 -89.9902 16.0645 -84.4727 16.0645 -74.0723 L 16.0645 3.85742 C 16.0645 14.2578 21.582 19.7754 31.9824 19.7754 Z M 70.8984 -3.71094 C 70.166 -3.71094 69.5312 -4.3457 69.5312 -4.98047 L 69.5312 -33.7891 L 40.9668 -33.7891 C 40.332 -33.7891 39.5996 -34.4727 39.5996 -35.1074 C 39.5996 -35.8887 40.2832 -36.5723 40.9668 -36.5723 L 69.5312 -36.5723 L 69.5312 -65.1855 C 69.5312 -65.8691 70.166 -66.5039 70.8984 -66.5039 C 71.7773 -66.5039 72.3633 -65.8691 72.3633 -65.1855 L 72.3633 -36.5723 L 100.977 -36.5723 C 101.66 -36.5723 102.295 -35.8887 102.295 -35.1074 C 102.295 -34.4727 101.562 -33.7891 100.977 -33.7891 L 72.3633 -33.7891 L 72.3633 -4.98047 C 72.3633 -4.39453 71.7773 -3.71094 70.8984 -3.71094 Z"/>
  </g>
  <g id="Black-M" transform="matrix(1 0 0 1 2872.19 1126)">
   <path d="M 31.9824 13.5742 L 90.4297 13.5742 C 102.686 13.5742 109.961 6.29883 109.961 -5.95703 L 109.961 -64.4043 C 109.961 -76.6602 102.686 -83.9355 90.4297 -83.9355 L 31.9824 -83.9355 C 19.7266 -83.9355 12.4512 -76.6602 12.4512 -64.4043 L 12.4512 -5.95703 C 12.4512 6.29883 19.7266 13.5742 31.9824 13.5742 Z M 61.8652 -11.2305 C 57.7148 -11.2305 54.4922 -14.209 54.4922 -18.2129 L 54.4922 -27.7832 L 44.3359 -27.7832 C 40.332 -27.7832 37.2559 -31.0059 37.2559 -35.1562 C 37.2559 -39.2578 40.332 -42.4805 44.3359 -42.4805 L 54.4922 -42.4805 L 54.4922 -52.002 C 54.4922 -56.0059 57.7148 -59.0332 61.8652 -59.0332 C 65.9668 -59.0332 69.1895 -56.0059 69.1895 -52.002 L 69.1895 -42.4805 L 79.3457 -42.4805 C 83.4473 -42.4805 86.4258 -39.2578 86.4258 -35.1562 C 86.4258 -31.0059 83.4473 -27.7832 79.3457 -27.7832 L 69.1895 -27.7832 L 69.1895 -18.2129 C 69.1895 -14.209 65.9668 -11.2305 61.8652 -11.2305 Z"/>
  </g>
  <g id="Heavy-M" transform="matrix(1 0 0 1 2576.39 1126)">
   <path d="M 31.0059 12.6465 L 89.6484 12.6465 C 101.416 12.6465 108.154 5.9082 108.154 -5.81055 L 108.154 -64.5508 C 108.154 -76.2695 101.416 -83.0566 89.6484 -83.0566 L 31.0059 -83.0566 C 19.2383 -83.0566 12.4512 -76.3184 12.4512 -64.5508 L 12.4512 -5.81055 C 12.4512 5.9082 19.2383 12.6465 31.0059 12.6465 Z M 60.791 -11.1328 C 56.9824 -11.1328 54.1504 -13.916 54.1504 -17.627 L 54.1504 -28.5156 L 42.627 -28.5156 C 38.8672 -28.5156 36.0352 -31.3477 36.0352 -35.1562 C 36.0352 -38.9648 38.8672 -41.7969 42.627 -41.7969 L 54.1504 -41.7969 L 54.1504 -52.8809 C 54.1504 -56.5918 56.9824 -59.375 60.791 -59.375 C 64.5996 -59.375 67.4316 -56.6406 67.4316 -52.8809 L 67.4316 -41.7969 L 79.0039 -41.7969 C 82.8125 -41.7969 85.5469 -38.9648 85.5469 -35.1562 C 85.5469 -31.3477 82.7637 -28.5156 79.0039 -28.5156 L 67.4316 -28.5156 L 67.4316 -17.627 C 67.4316 -13.8672 64.5996 -11.1328 60.791 -11.1328 Z"/>
  </g>
  <g id="Bold-M" transform="matrix(1 0 0 1 2280.68 1126)">
   <path d="M 29.8828 11.6699 L 88.7207 11.6699 C 99.9512 11.6699 106.152 5.46875 106.152 -5.66406 L 106.152 -64.6973 C 106.152 -75.8789 99.9512 -82.0312 88.7207 -82.0312 L 29.8828 -82.0312 C 18.6523 -82.0312 12.4512 -75.8789 12.4512 -64.6973 L 12.4512 -5.66406 C 12.4512 5.51758 18.6523 11.6699 29.8828 11.6699 Z M 59.5703 -11.084 C 56.1523 -11.084 53.8086 -13.5742 53.8086 -16.9922 L 53.8086 -29.3457 L 40.7227 -29.3457 C 37.2559 -29.3457 34.7168 -31.7383 34.7168 -35.1562 C 34.7168 -38.623 37.207 -40.9668 40.7227 -40.9668 L 53.8086 -40.9668 L 53.8086 -53.8574 C 53.8086 -57.2754 56.1523 -59.7656 59.5703 -59.7656 C 63.0371 -59.7656 65.4297 -57.3242 65.4297 -53.8574 L 65.4297 -40.9668 L 78.5645 -40.9668 C 82.0801 -40.9668 84.5215 -38.623 84.5215 -35.1562 C 84.5215 -31.7383 82.0312 -29.3457 78.5645 -29.3457 L 65.4297 -29.3457 L 65.4297 -16.9922 C 65.4297 -13.5254 63.0371 -11.084 59.5703 -11.084 Z"/>
  </g>
  <g id="Semibold-M" transform="matrix(1 0 0 1 1984.65 1126)">
   <path d="M 29.1016 10.9863 L 88.0859 10.9863 C 98.9746 10.9863 104.785 5.17578 104.785 -5.56641 L 104.785 -64.8438 C 104.785 -75.5859 98.9746 -81.3477 88.0859 -81.3477 L 29.1016 -81.3477 C 18.2617 -81.3477 12.4512 -75.5859 12.4512 -64.8438 L 12.4512 -5.56641 C 12.4512 5.22461 18.2617 10.9863 29.1016 10.9863 Z M 58.7891 -11.0352 C 55.5664 -11.0352 53.5645 -13.3301 53.5645 -16.5527 L 53.5645 -29.9316 L 39.4043 -29.9316 C 36.1328 -29.9316 33.7891 -31.9824 33.7891 -35.1562 C 33.7891 -38.3789 36.084 -40.4297 39.4043 -40.4297 L 53.5645 -40.4297 L 53.5645 -54.4922 C 53.5645 -57.7148 55.5664 -60.0098 58.7891 -60.0098 C 61.9629 -60.0098 64.0625 -57.7637 64.0625 -54.4922 L 64.0625 -40.4297 L 78.2715 -40.4297 C 81.5918 -40.4297 83.8379 -38.3789 83.8379 -35.1562 C 83.8379 -31.9824 81.543 -29.9316 78.2715 -29.9316 L 64.0625 -29.9316 L 64.0625 -16.5527 C 64.0625 -13.2812 61.9629 -11.0352 58.7891 -11.0352 Z"/>
  </g>
  <g id="Medium-M" transform="matrix(1 0 0 1 1688.47 1126)">
   <path d="M 28.5156 10.4492 L 87.6465 10.4492 C 98.2422 10.4492 103.711 4.98047 103.711 -5.46875 L 103.711 -64.8926 C 103.711 -75.3418 98.2422 -80.8105 87.6465 -80.8105 L 28.5156 -80.8105 C 17.9688 -80.8105 12.4512 -75.3906 12.4512 -64.8926 L 12.4512 -5.46875 C 12.4512 4.98047 17.9688 10.4492 28.5156 10.4492 Z M 58.1543 -10.9863 C 55.1758 -10.9863 53.3691 -13.1348 53.3691 -16.2109 L 53.3691 -30.3711 L 38.3789 -30.3711 C 35.3027 -30.3711 33.1055 -32.1777 33.1055 -35.1562 C 33.1055 -38.1836 35.2051 -40.0391 38.3789 -40.0391 L 53.3691 -40.0391 L 53.3691 -54.9805 C 53.3691 -58.0566 55.1758 -60.2539 58.1543 -60.2539 C 61.1328 -60.2539 63.0371 -58.1543 63.0371 -54.9805 L 63.0371 -40.0391 L 78.0762 -40.0391 C 81.25 -40.0391 83.3008 -38.1836 83.3008 -35.1562 C 83.3008 -32.1777 81.1523 -30.3711 78.0762 -30.3711 L 63.0371 -30.3711 L 63.0371 -16.2109 C 63.0371 -13.0859 61.1328 -10.9863 58.1543 -10.9863 Z"/>
  </g>
  <g id="Regular-M" transform="matrix(1 0 0 1 1392.45 1126)">
   <path d="M 27.7832 9.76562 L 87.0117 9.76562 C 97.2656 9.76562 102.344 4.6875 102.344 -5.37109 L 102.344 -64.9902 C 102.344 -75.0488 97.2656 -80.127 87.0117 -80.127 L 27.7832 -80.127 C 17.5781 -80.127 12.4512 -75.0977 12.4512 -64.9902 L 12.4512 -5.37109 C 12.4512 4.73633 17.5781 9.76562 27.7832 9.76562 Z M 57.3242 -10.9375 C 54.5898 -10.9375 53.125 -12.9395 53.125 -15.7715 L 53.125 -30.957 L 37.1094 -30.957 C 34.2285 -30.957 32.2266 -32.4707 32.2266 -35.1562 C 32.2266 -37.9395 34.082 -39.502 37.1094 -39.502 L 53.125 -39.502 L 53.125 -55.6641 C 53.125 -58.4961 54.5898 -60.498 57.3242 -60.498 C 60.0586 -60.498 61.7188 -58.5938 61.7188 -55.6641 L 61.7188 -39.502 L 77.7832 -39.502 C 80.7617 -39.502 82.6172 -37.9395 82.6172 -35.1562 C 82.6172 -32.4707 80.6641 -30.957 77.7832 -30.957 L 61.7188 -30.957 L 61.7188 -15.7715 C 61.7188 -12.8418 60.0586 -10.9375 57.3242 -10.9375 Z"/>
  </g>
  <g id="Light-M" transform="matrix(1 0 0 1 1096.47 1126)">
   <path d="M 26.8555 9.0332 L 86.4746 9.0332 C 95.9961 9.0332 100.879 4.15039 100.879 -5.22461 L 100.879 -65.0879 C 100.879 -74.5117 95.9961 -79.3945 86.4746 -79.3945 L 26.8555 -79.3945 C 17.334 -79.3945 12.4512 -74.5605 12.4512 -65.0879 L 12.4512 -5.22461 C 12.4512 4.19922 17.334 9.0332 26.8555 9.0332 Z M 56.5918 -10.8887 C 54.541 -10.8887 53.3691 -12.4023 53.3691 -14.502 L 53.3691 -31.9336 L 35.4492 -31.9336 C 33.3008 -31.9336 31.7383 -33.1055 31.7383 -35.1562 C 31.7383 -37.2559 33.2031 -38.5254 35.4492 -38.5254 L 53.3691 -38.5254 L 53.3691 -56.543 C 53.3691 -58.6426 54.541 -60.1562 56.5918 -60.1562 C 58.6914 -60.1562 59.9609 -58.7402 59.9609 -56.543 L 59.9609 -38.5254 L 77.9297 -38.5254 C 80.127 -38.5254 81.5918 -37.2559 81.5918 -35.1562 C 81.5918 -33.1055 80.0293 -31.9336 77.9297 -31.9336 L 59.9609 -31.9336 L 59.9609 -14.502 C 59.9609 -12.3535 58.6914 -10.8887 56.5918 -10.8887 Z"/>
  </g>
  <g id="Thin-M" transform="matrix(1 0 0 1 800.758 1126)">
   <path d="M 25.6348 8.05664 L 85.7422 8.05664 C 94.3848 8.05664 98.877 3.4668 98.877 -5.0293 L 98.877 -65.2344 C 98.877 -73.7305 94.3848 -78.3691 85.7422 -78.3691 L 25.6348 -78.3691 C 16.9922 -78.3691 12.4512 -73.877 12.4512 -65.2344 L 12.4512 -5.0293 C 12.4512 3.56445 16.9922 8.05664 25.6348 8.05664 Z M 55.6152 -10.8398 C 54.4434 -10.8398 53.6621 -11.7676 53.6621 -12.8906 L 53.6621 -33.2031 L 33.252 -33.2031 C 32.0801 -33.2031 31.1035 -34.0332 31.1035 -35.1562 C 31.1035 -36.377 32.0312 -37.207 33.252 -37.207 L 53.6621 -37.207 L 53.6621 -57.666 C 53.6621 -58.8379 54.4434 -59.7656 55.6152 -59.7656 C 56.8848 -59.7656 57.666 -58.8867 57.666 -57.666 L 57.666 -37.207 L 78.125 -37.207 C 79.3457 -37.207 80.2246 -36.377 80.2246 -35.1562 C 80.2246 -34.0332 79.248 -33.2031 78.125 -33.2031 L 57.666 -33.2031 L 57.666 -12.8906 C 57.666 -11.7188 56.8848 -10.8398 55.6152 -10.8398 Z"/>
  </g>
  <g id="Ultralight-M" transform="matrix(1 0 0 1 504.535 1126)">
   <path d="M 25 7.56836 L 85.3516 7.56836 C 93.5059 7.56836 97.9004 3.125 97.9004 -4.98047 L 97.9004 -65.2832 C 97.9004 -73.3887 93.5059 -77.832 85.3516 -77.832 L 25 -77.832 C 16.7969 -77.832 12.4512 -73.4863 12.4512 -65.2832 L 12.4512 -4.98047 C 12.4512 3.22266 16.7969 7.56836 25 7.56836 Z M 55.0781 -10.8398 C 54.3945 -10.8398 53.8574 -11.4258 53.8574 -12.0605 L 53.8574 -33.8867 L 32.1289 -33.8867 C 31.4941 -33.8867 30.8105 -34.4727 30.8105 -35.1562 C 30.8105 -35.8887 31.3965 -36.5234 32.1289 -36.5234 L 53.8574 -36.5234 L 53.8574 -58.252 C 53.8574 -58.9355 54.3945 -59.5703 55.0781 -59.5703 C 55.957 -59.5703 56.4941 -58.9355 56.4941 -58.252 L 56.4941 -36.5234 L 78.2227 -36.5234 C 78.9062 -36.5234 79.541 -35.8887 79.541 -35.1562 C 79.541 -34.4727 78.8574 -33.8867 78.2227 -33.8867 L 56.4941 -33.8867 L 56.4941 -12.0605 C 56.4941 -11.4258 55.957 -10.8398 55.0781 -10.8398 Z"/>
  </g>
  <g id="Black-S" transform="matrix(1 0 0 1 2885.5 696)">
   <path d="M 25 2.92969 L 70.8008 2.92969 C 80.3711 2.92969 86.0352 -2.73438 86.0352 -12.3047 L 86.0352 -58.1055 C 86.0352 -67.6758 80.3711 -73.3398 70.8008 -73.3398 L 25 -73.3398 C 15.4297 -73.3398 9.76562 -67.6758 9.76562 -58.1055 L 9.76562 -12.3047 C 9.76562 -2.73438 15.4297 2.92969 25 2.92969 Z M 48.3887 -16.4062 C 45.166 -16.4062 42.6758 -18.75 42.6758 -21.875 L 42.6758 -29.4434 L 34.6191 -29.4434 C 31.4941 -29.4434 29.1016 -31.9336 29.1016 -35.1562 C 29.1016 -38.3789 31.4941 -40.8691 34.6191 -40.8691 L 42.6758 -40.8691 L 42.6758 -48.4375 C 42.6758 -51.5625 45.166 -53.9062 48.3887 -53.9062 C 51.6113 -53.9062 54.1016 -51.5625 54.1016 -48.4375 L 54.1016 -40.8691 L 62.1582 -40.8691 C 65.332 -40.8691 67.6758 -38.3789 67.6758 -35.1562 C 67.6758 -31.9336 65.332 -29.4434 62.1582 -29.4434 L 54.1016 -29.4434 L 54.1016 -21.875 C 54.1016 -18.75 51.6113 -16.4062 48.3887 -16.4062 Z"/>
  </g>
  <g id="Heavy-S" transform="matrix(1 0 0 1 2589.4 696)">
   <path d="M 24.3652 2.34375 L 70.2637 2.34375 C 79.541 2.34375 84.8145 -2.97852 84.8145 -12.207 L 84.8145 -58.2031 C 84.8145 -67.4316 79.541 -72.7539 70.2637 -72.7539 L 24.3652 -72.7539 C 15.0879 -72.7539 9.76562 -67.4316 9.76562 -58.2031 L 9.76562 -12.207 C 9.76562 -2.97852 15.0879 2.34375 24.3652 2.34375 Z M 47.6562 -16.3574 C 44.6289 -16.3574 42.3828 -18.5547 42.3828 -21.582 L 42.3828 -29.8828 L 33.4961 -29.8828 C 30.4688 -29.8828 28.2227 -32.1289 28.2227 -35.1562 C 28.2227 -38.2324 30.4688 -40.4297 33.4961 -40.4297 L 42.3828 -40.4297 L 42.3828 -49.0234 C 42.3828 -52.002 44.6289 -54.1992 47.6562 -54.1992 C 50.6836 -54.1992 52.9297 -52.002 52.9297 -49.0234 L 52.9297 -40.4297 L 61.8652 -40.4297 C 64.9414 -40.4297 67.0898 -38.2324 67.0898 -35.1562 C 67.0898 -32.1289 64.8926 -29.8828 61.8652 -29.8828 L 52.9297 -29.8828 L 52.9297 -21.582 C 52.9297 -18.5547 50.6836 -16.3574 47.6562 -16.3574 Z"/>
  </g>
  <g id="Bold-S" transform="matrix(1 0 0 1 2293.35 696)">
   <path d="M 23.6328 1.66016 L 69.6289 1.66016 C 78.6133 1.66016 83.4961 -3.22266 83.4961 -12.1094 L 83.4961 -58.3008 C 83.4961 -67.1875 78.6133 -72.0703 69.6289 -72.0703 L 23.6328 -72.0703 C 14.6973 -72.0703 9.76562 -67.1875 9.76562 -58.3008 L 9.76562 -12.1094 C 9.76562 -3.22266 14.6973 1.66016 23.6328 1.66016 Z M 46.8262 -16.3086 C 43.9941 -16.3086 42.0898 -18.3594 42.0898 -21.2402 L 42.0898 -30.4199 L 32.2266 -30.4199 C 29.3945 -30.4199 27.2949 -32.3242 27.2949 -35.1562 C 27.2949 -38.0371 29.3457 -39.9414 32.2266 -39.9414 L 42.0898 -39.9414 L 42.0898 -49.6094 C 42.0898 -52.4902 43.9941 -54.541 46.8262 -54.541 C 49.6582 -54.541 51.6602 -52.5391 51.6602 -49.6094 L 51.6602 -39.9414 L 61.5234 -39.9414 C 64.4531 -39.9414 66.4551 -38.0371 66.4551 -35.1562 C 66.4551 -32.3242 64.4043 -30.4199 61.5234 -30.4199 L 51.6602 -30.4199 L 51.6602 -21.2402 C 51.6602 -18.3105 49.6582 -16.3086 46.8262 -16.3086 Z"/>
  </g>
  <g id="Semibold-S" transform="matrix(1 0 0 1 1997.1 696)">
   <path d="M 23.0957 1.17188 L 69.1895 1.17188 C 77.9297 1.17188 82.5684 -3.36914 82.5684 -12.0117 L 82.5684 -58.3984 C 82.5684 -67.041 77.9297 -71.582 69.1895 -71.582 L 23.0957 -71.582 C 14.4043 -71.582 9.76562 -67.041 9.76562 -58.3984 L 9.76562 -12.0117 C 9.76562 -3.36914 14.4043 1.17188 23.0957 1.17188 Z M 46.2891 -16.2598 C 43.5547 -16.2598 41.8457 -18.2129 41.8457 -20.9961 L 41.8457 -30.7617 L 31.3965 -30.7617 C 28.6133 -30.7617 26.6113 -32.4707 26.6113 -35.1562 C 26.6113 -37.8906 28.5156 -39.6484 31.3965 -39.6484 L 41.8457 -39.6484 L 41.8457 -50.0488 C 41.8457 -52.832 43.5547 -54.7852 46.2891 -54.7852 C 48.9746 -54.7852 50.7324 -52.8809 50.7324 -50.0488 L 50.7324 -39.6484 L 61.2793 -39.6484 C 64.1113 -39.6484 66.0156 -37.8906 66.0156 -35.1562 C 66.0156 -32.4707 64.0625 -30.7617 61.2793 -30.7617 L 50.7324 -30.7617 L 50.7324 -20.9961 C 50.7324 -18.1641 48.9746 -16.2598 46.2891 -16.2598 Z"/>
  </g>
  <g id="Medium-S" transform="matrix(1 0 0 1 1700.75 696)">
   <path d="M 22.7051 0.830078 L 68.8965 0.830078 C 77.4414 0.830078 81.8359 -3.51562 81.8359 -11.9629 L 81.8359 -58.4473 C 81.8359 -66.8945 77.4414 -71.2402 68.8965 -71.2402 L 22.7051 -71.2402 C 14.209 -71.2402 9.76562 -66.8945 9.76562 -58.4473 L 9.76562 -11.9629 C 9.76562 -3.51562 14.209 0.830078 22.7051 0.830078 Z M 45.8496 -16.2598 C 43.2129 -16.2598 41.6992 -18.1152 41.6992 -20.8008 L 41.6992 -31.0547 L 30.7129 -31.0547 C 28.0273 -31.0547 26.123 -32.5684 26.123 -35.1562 C 26.123 -37.793 27.9297 -39.4043 30.7129 -39.4043 L 41.6992 -39.4043 L 41.6992 -50.3906 C 41.6992 -53.0762 43.2129 -54.9316 45.8496 -54.9316 C 48.4375 -54.9316 50.0977 -53.125 50.0977 -50.3906 L 50.0977 -39.4043 L 61.084 -39.4043 C 63.916 -39.4043 65.6738 -37.793 65.6738 -35.1562 C 65.6738 -32.5684 63.8184 -31.0547 61.084 -31.0547 L 50.0977 -31.0547 L 50.0977 -20.8008 C 50.0977 -18.0664 48.4375 -16.2598 45.8496 -16.2598 Z"/>
  </g>
  <g id="Regular-S" transform="matrix(1 0 0 1 1404.51 696)">
   <path d="M 22.2168 0.390625 L 68.457 0.390625 C 76.8066 0.390625 80.9082 -3.71094 80.9082 -11.9141 L 80.9082 -58.4961 C 80.9082 -66.6992 76.8066 -70.8008 68.457 -70.8008 L 22.2168 -70.8008 C 13.916 -70.8008 9.76562 -66.6992 9.76562 -58.4961 L 9.76562 -11.9141 C 9.76562 -3.71094 13.916 0.390625 22.2168 0.390625 Z M 45.3125 -16.2109 C 42.8223 -16.2109 41.5039 -17.9688 41.5039 -20.5566 L 41.5039 -31.3965 L 29.8828 -31.3965 C 27.2461 -31.3965 25.4883 -32.7148 25.4883 -35.1562 C 25.4883 -37.6953 27.1484 -39.0625 29.8828 -39.0625 L 41.5039 -39.0625 L 41.5039 -50.8301 C 41.5039 -53.3691 42.8223 -55.1758 45.3125 -55.1758 C 47.7539 -55.1758 49.1699 -53.4668 49.1699 -50.8301 L 49.1699 -39.0625 L 60.8398 -39.0625 C 63.5742 -39.0625 65.2344 -37.6953 65.2344 -35.1562 C 65.2344 -32.7148 63.4766 -31.3965 60.8398 -31.3965 L 49.1699 -31.3965 L 49.1699 -20.5566 C 49.1699 -17.9199 47.7539 -16.2109 45.3125 -16.2109 Z"/>
  </g>
  <g id="Light-S" transform="matrix(1 0 0 1 1108.46 696)">
   <path d="M 21.3867 -0.292969 L 67.9688 -0.292969 C 75.7324 -0.292969 79.5898 -4.15039 79.5898 -11.7676 L 79.5898 -58.5938 C 79.5898 -66.2109 75.7324 -70.1172 67.9688 -70.1172 L 21.3867 -70.1172 C 13.6719 -70.1172 9.76562 -66.2598 9.76562 -58.5938 L 9.76562 -11.7676 C 9.76562 -4.15039 13.6719 -0.292969 21.3867 -0.292969 Z M 44.6289 -16.1621 C 42.7734 -16.1621 41.6992 -17.5293 41.6992 -19.4824 L 41.6992 -32.2754 L 28.418 -32.2754 C 26.4648 -32.2754 25.0488 -33.3008 25.0488 -35.1562 C 25.0488 -37.1094 26.3672 -38.1836 28.418 -38.1836 L 41.6992 -38.1836 L 41.6992 -51.5625 C 41.6992 -53.5156 42.7734 -54.8828 44.6289 -54.8828 C 46.5332 -54.8828 47.6562 -53.5645 47.6562 -51.5625 L 47.6562 -38.1836 L 60.9863 -38.1836 C 63.0371 -38.1836 64.3066 -37.1094 64.3066 -35.1562 C 64.3066 -33.3008 62.9395 -32.2754 60.9863 -32.2754 L 47.6562 -32.2754 L 47.6562 -19.4824 C 47.6562 -17.4805 46.5332 -16.1621 44.6289 -16.1621 Z"/>
  </g>
  <g id="Thin-S" transform="matrix(1 0 0 1 812.599 696)">
   <path d="M 20.3125 -1.12305 L 67.334 -1.12305 C 74.2676 -1.12305 77.8809 -4.78516 77.8809 -11.6211 L 77.8809 -58.6914 C 77.8809 -65.5762 74.2676 -69.2383 67.334 -69.2383 L 20.3125 -69.2383 C 13.3789 -69.2383 9.76562 -65.625 9.76562 -58.6914 L 9.76562 -11.6211 C 9.76562 -4.6875 13.3789 -1.12305 20.3125 -1.12305 Z M 43.75 -16.1621 C 42.6758 -16.1621 41.9922 -16.9922 41.9922 -18.0664 L 41.9922 -33.3984 L 26.4648 -33.3984 C 25.3906 -33.3984 24.5117 -34.1309 24.5117 -35.1562 C 24.5117 -36.2793 25.3418 -37.0117 26.4648 -37.0117 L 41.9922 -37.0117 L 41.9922 -52.5879 C 41.9922 -53.7109 42.6758 -54.541 43.75 -54.541 C 44.9219 -54.541 45.6055 -53.7109 45.6055 -52.5879 L 45.6055 -37.0117 L 61.1816 -37.0117 C 62.3047 -37.0117 63.1348 -36.2793 63.1348 -35.1562 C 63.1348 -34.1309 62.2559 -33.3984 61.1816 -33.3984 L 45.6055 -33.3984 L 45.6055 -18.0664 C 45.6055 -16.9434 44.9219 -16.1621 43.75 -16.1621 Z"/>
  </g>
  <g id="Ultralight-S" transform="matrix(1 0 0 1 516.352 696)">
   <path d="M 19.7754 -1.5625 L 66.9922 -1.5625 C 73.5352 -1.5625 76.9531 -5.12695 76.9531 -11.5234 L 76.9531 -58.7891 C 76.9531 -65.2344 73.5352 -68.75 66.9922 -68.75 L 19.7754 -68.75 C 13.2324 -68.75 9.76562 -65.2832 9.76562 -58.7891 L 9.76562 -11.5234 C 9.76562 -5.0293 13.2324 -1.5625 19.7754 -1.5625 Z M 43.3105 -16.1133 C 42.627 -16.1133 42.1387 -16.6504 42.1387 -17.2852 L 42.1387 -33.9844 L 25.4883 -33.9844 C 24.8535 -33.9844 24.2188 -34.5215 24.2188 -35.1562 C 24.2188 -35.8887 24.8047 -36.4258 25.4883 -36.4258 L 42.1387 -36.4258 L 42.1387 -53.125 C 42.1387 -53.8086 42.627 -54.3457 43.3105 -54.3457 C 44.0918 -54.3457 44.5801 -53.8086 44.5801 -53.125 L 44.5801 -36.4258 L 61.2793 -36.4258 C 61.9629 -36.4258 62.5 -35.8887 62.5 -35.1562 C 62.5 -34.5215 61.9141 -33.9844 61.2793 -33.9844 L 44.5801 -33.9844 L 44.5801 -17.2852 C 44.5801 -16.6504 44.0918 -16.1133 43.3105 -16.1133 Z"/>
  </g>
 </g>
</svg>
