<?xml version="1.0" encoding="UTF-8"?>
<!--Generator: Apple Native CoreSVG 123-->
<!DOCTYPE svg
PUBLIC "-//W3C//DTD SVG 1.1//EN"
       "http://www.w3.org/Graphics/SVG/1.1/DTD/svg11.dtd">
<svg version="1.1" xmlns="http://www.w3.org/2000/svg" xmlns:xlink="http://www.w3.org/1999/xlink" width="3300" height="2200">
 <!--glyph: "uni10022D.medium", point size: 100.000000, font version: "Version 15.0d7e11", template writer version: "5"-->
 <g id="Notes">
  <rect height="2200" id="artboard" style="fill:white;opacity:1" width="3300" x="0" y="0"/>
  <line id="" style="fill:none;stroke:black;opacity:1;stroke-width:0.5;" x1="263" x2="3036" y1="292" y2="292"/>
  <text style="stroke:none;fill:black;font-family:-apple-system,&quot;SF Pro Display&quot;,&quot;SF Pro Text&quot;,Helvetica,sans-serif;font-weight:bold;" transform="matrix(1 0 0 1 263 322)">Weight/Scale Variations</text>
  <text style="stroke:none;fill:black;font-family:-apple-system,&quot;SF Pro Display&quot;,&quot;SF Pro Text&quot;,Helvetica,sans-serif;text-anchor:middle;" transform="matrix(1 0 0 1 559.711 322)">Ultralight</text>
  <text style="stroke:none;fill:black;font-family:-apple-system,&quot;SF Pro Display&quot;,&quot;SF Pro Text&quot;,Helvetica,sans-serif;text-anchor:middle;" transform="matrix(1 0 0 1 856.422 322)">Thin</text>
  <text style="stroke:none;fill:black;font-family:-apple-system,&quot;SF Pro Display&quot;,&quot;SF Pro Text&quot;,Helvetica,sans-serif;text-anchor:middle;" transform="matrix(1 0 0 1 1153.13 322)">Light</text>
  <text style="stroke:none;fill:black;font-family:-apple-system,&quot;SF Pro Display&quot;,&quot;SF Pro Text&quot;,Helvetica,sans-serif;text-anchor:middle;" transform="matrix(1 0 0 1 1449.84 322)">Regular</text>
  <text style="stroke:none;fill:black;font-family:-apple-system,&quot;SF Pro Display&quot;,&quot;SF Pro Text&quot;,Helvetica,sans-serif;text-anchor:middle;" transform="matrix(1 0 0 1 1746.56 322)">Medium</text>
  <text style="stroke:none;fill:black;font-family:-apple-system,&quot;SF Pro Display&quot;,&quot;SF Pro Text&quot;,Helvetica,sans-serif;text-anchor:middle;" transform="matrix(1 0 0 1 2043.27 322)">Semibold</text>
  <text style="stroke:none;fill:black;font-family:-apple-system,&quot;SF Pro Display&quot;,&quot;SF Pro Text&quot;,Helvetica,sans-serif;text-anchor:middle;" transform="matrix(1 0 0 1 2339.98 322)">Bold</text>
  <text style="stroke:none;fill:black;font-family:-apple-system,&quot;SF Pro Display&quot;,&quot;SF Pro Text&quot;,Helvetica,sans-serif;text-anchor:middle;" transform="matrix(1 0 0 1 2636.69 322)">Heavy</text>
  <text style="stroke:none;fill:black;font-family:-apple-system,&quot;SF Pro Display&quot;,&quot;SF Pro Text&quot;,Helvetica,sans-serif;text-anchor:middle;" transform="matrix(1 0 0 1 2933.4 322)">Black</text>
  <line id="" style="fill:none;stroke:black;opacity:1;stroke-width:0.5;" x1="263" x2="3036" y1="1903" y2="1903"/>
  <g id="" transform="matrix(1 0 0 1 263 1933)">
   <path d="M 9.24805 0.830078 C 13.5547 0.830078 17.1387 -2.74414 17.1387 -7.05078 C 17.1387 -11.3574 13.5449 -14.9316 9.23828 -14.9316 C 4.94141 -14.9316 1.36719 -11.3574 1.36719 -7.05078 C 1.36719 -2.74414 4.95117 0.830078 9.24805 0.830078 Z M 9.24805 -0.654297 C 5.70312 -0.654297 2.87109 -3.49609 2.87109 -7.05078 C 2.87109 -10.6055 5.69336 -13.4473 9.23828 -13.4473 C 12.793 -13.4473 15.6348 -10.6055 15.6445 -7.05078 C 15.6543 -3.49609 12.8027 -0.654297 9.24805 -0.654297 Z M 9.22852 -3.42773 C 9.69727 -3.42773 9.9707 -3.74023 9.9707 -4.25781 L 9.9707 -6.31836 L 12.1973 -6.31836 C 12.6953 -6.31836 13.0371 -6.57227 13.0371 -7.04102 C 13.0371 -7.51953 12.7148 -7.7832 12.1973 -7.7832 L 9.9707 -7.7832 L 9.9707 -10.0098 C 9.9707 -10.5273 9.69727 -10.8496 9.22852 -10.8496 C 8.75977 -10.8496 8.50586 -10.5078 8.50586 -10.0098 L 8.50586 -7.7832 L 6.29883 -7.7832 C 5.78125 -7.7832 5.44922 -7.51953 5.44922 -7.04102 C 5.44922 -6.57227 5.80078 -6.31836 6.29883 -6.31836 L 8.50586 -6.31836 L 8.50586 -4.25781 C 8.50586 -3.75977 8.75977 -3.42773 9.22852 -3.42773 Z"/>
  </g>
  <g id="" transform="matrix(1 0 0 1 281.506 1933)">
   <path d="M 11.709 2.91016 C 17.1582 2.91016 21.6699 -1.60156 21.6699 -7.05078 C 21.6699 -12.4902 17.1484 -17.0117 11.6992 -17.0117 C 6.25977 -17.0117 1.74805 -12.4902 1.74805 -7.05078 C 1.74805 -1.60156 6.26953 2.91016 11.709 2.91016 Z M 11.709 1.25 C 7.09961 1.25 3.41797 -2.44141 3.41797 -7.05078 C 3.41797 -11.6504 7.08984 -15.3516 11.6992 -15.3516 C 16.3086 -15.3516 20 -11.6504 20.0098 -7.05078 C 20.0195 -2.44141 16.3184 1.25 11.709 1.25 Z M 11.6895 -2.41211 C 12.207 -2.41211 12.5195 -2.77344 12.5195 -3.33984 L 12.5195 -6.23047 L 15.5762 -6.23047 C 16.123 -6.23047 16.5039 -6.51367 16.5039 -7.03125 C 16.5039 -7.55859 16.1426 -7.86133 15.5762 -7.86133 L 12.5195 -7.86133 L 12.5195 -10.9277 C 12.5195 -11.5039 12.207 -11.8555 11.6895 -11.8555 C 11.1719 -11.8555 10.8789 -11.4844 10.8789 -10.9277 L 10.8789 -7.86133 L 7.83203 -7.86133 C 7.26562 -7.86133 6.89453 -7.55859 6.89453 -7.03125 C 6.89453 -6.51367 7.28516 -6.23047 7.83203 -6.23047 L 10.8789 -6.23047 L 10.8789 -3.33984 C 10.8789 -2.79297 11.1719 -2.41211 11.6895 -2.41211 Z"/>
  </g>
  <g id="" transform="matrix(1 0 0 1 304.924 1933)">
   <path d="M 14.9707 5.67383 C 21.9336 5.67383 27.6953 -0.078125 27.6953 -7.04102 C 27.6953 -14.0039 21.9238 -19.7559 14.9609 -19.7559 C 8.00781 -19.7559 2.25586 -14.0039 2.25586 -7.04102 C 2.25586 -0.078125 8.01758 5.67383 14.9707 5.67383 Z M 14.9707 3.85742 C 8.93555 3.85742 4.08203 -1.00586 4.08203 -7.04102 C 4.08203 -13.0762 8.92578 -17.9395 14.9609 -17.9395 C 21.0059 -17.9395 25.8594 -13.0762 25.8691 -7.04102 C 25.8789 -1.00586 21.0156 3.85742 14.9707 3.85742 Z M 14.9512 -1.06445 C 15.5176 -1.06445 15.8691 -1.45508 15.8691 -2.06055 L 15.8691 -6.13281 L 20.1074 -6.13281 C 20.6934 -6.13281 21.1133 -6.46484 21.1133 -7.02148 C 21.1133 -7.59766 20.7227 -7.93945 20.1074 -7.93945 L 15.8691 -7.93945 L 15.8691 -12.1875 C 15.8691 -12.8027 15.5176 -13.1934 14.9512 -13.1934 C 14.3848 -13.1934 14.0625 -12.7832 14.0625 -12.1875 L 14.0625 -7.93945 L 9.83398 -7.93945 C 9.21875 -7.93945 8.80859 -7.59766 8.80859 -7.02148 C 8.80859 -6.46484 9.23828 -6.13281 9.83398 -6.13281 L 14.0625 -6.13281 L 14.0625 -2.06055 C 14.0625 -1.47461 14.3848 -1.06445 14.9512 -1.06445 Z"/>
  </g>
  <text style="stroke:none;fill:black;font-family:-apple-system,&quot;SF Pro Display&quot;,&quot;SF Pro Text&quot;,Helvetica,sans-serif;font-weight:bold;" transform="matrix(1 0 0 1 263 1953)">Design Variations</text>
  <text style="stroke:none;fill:black;font-family:-apple-system,&quot;SF Pro Display&quot;,&quot;SF Pro Text&quot;,Helvetica,sans-serif;" transform="matrix(1 0 0 1 263 1971)">Symbols are supported in up to nine weights and three scales.</text>
  <text style="stroke:none;fill:black;font-family:-apple-system,&quot;SF Pro Display&quot;,&quot;SF Pro Text&quot;,Helvetica,sans-serif;" transform="matrix(1 0 0 1 263 1989)">For optimal layout with text and other symbols, vertically align</text>
  <text style="stroke:none;fill:black;font-family:-apple-system,&quot;SF Pro Display&quot;,&quot;SF Pro Text&quot;,Helvetica,sans-serif;" transform="matrix(1 0 0 1 263 2007)">symbols with the adjacent text.</text>
  <rect height="14" id="" style="fill:#00AEEF;stroke:none;opacity:0.4;" width="3" x="776" y="1919"/>
  <g id="" transform="matrix(1 0 0 1 779 1933)">
   <path d="M 10.5273 0 L 12.373 0 L 7.17773 -14.0918 L 5.43945 -14.0918 L 0.244141 0 L 2.08984 0 L 3.50586 -4.0332 L 9.11133 -4.0332 Z M 6.2793 -11.9531 L 6.33789 -11.9531 L 8.59375 -5.52734 L 4.02344 -5.52734 Z"/>
  </g>
  <rect height="14" id="" style="fill:#00AEEF;stroke:none;opacity:0.4;" width="3" x="791.617" y="1919"/>
  <text style="stroke:none;fill:black;font-family:-apple-system,&quot;SF Pro Display&quot;,&quot;SF Pro Text&quot;,Helvetica,sans-serif;font-weight:bold;" transform="matrix(1 0 0 1 776 1953)">Margins</text>
  <text style="stroke:none;fill:black;font-family:-apple-system,&quot;SF Pro Display&quot;,&quot;SF Pro Text&quot;,Helvetica,sans-serif;" transform="matrix(1 0 0 1 776 1971)">Leading and trailing margins on the left and right side of each symbol</text>
  <text style="stroke:none;fill:black;font-family:-apple-system,&quot;SF Pro Display&quot;,&quot;SF Pro Text&quot;,Helvetica,sans-serif;" transform="matrix(1 0 0 1 776 1989)">can be adjusted by modifying the width of the blue rectangles.</text>
  <text style="stroke:none;fill:black;font-family:-apple-system,&quot;SF Pro Display&quot;,&quot;SF Pro Text&quot;,Helvetica,sans-serif;" transform="matrix(1 0 0 1 776 2007)">Modifications are automatically applied proportionally to all</text>
  <text style="stroke:none;fill:black;font-family:-apple-system,&quot;SF Pro Display&quot;,&quot;SF Pro Text&quot;,Helvetica,sans-serif;" transform="matrix(1 0 0 1 776 2025)">scales and weights.</text>
  <g id="" transform="matrix(1 0 0 1 1289 1933)">
   <path d="M 2.83203 3.11523 L 4.375 4.6582 C 5.22461 5.48828 6.19141 5.41992 7.06055 4.46289 L 17.2754 -6.66016 C 17.7051 -6.36719 18.0957 -6.37695 18.5645 -6.47461 L 19.6094 -6.68945 L 20.3027 -5.99609 L 20.2539 -5.47852 C 20.1855 -4.95117 20.3516 -4.53125 20.8496 -4.0332 L 21.6602 -3.22266 C 22.168 -2.71484 22.8223 -2.68555 23.3008 -3.16406 L 26.5527 -6.41602 C 27.0312 -6.89453 27.0117 -7.54883 26.5039 -8.05664 L 25.6836 -8.87695 C 25.1855 -9.375 24.7754 -9.55078 24.2383 -9.47266 L 23.7109 -9.41406 L 23.0566 -10.0781 L 23.3398 -11.2207 C 23.4863 -11.7871 23.3398 -12.2559 22.7148 -12.8613 L 20.3027 -15.2539 C 16.7578 -18.7793 12.2266 -18.6719 9.11133 -15.5371 C 8.69141 -15.1074 8.64258 -14.5215 8.91602 -14.0918 C 9.15039 -13.7207 9.62891 -13.4961 10.2734 -13.6621 C 11.7871 -14.043 13.3008 -13.9258 14.7852 -12.9199 L 14.1602 -11.3379 C 13.9258 -10.752 13.9453 -10.2734 14.1797 -9.83398 L 3.01758 0.439453 C 2.08008 1.30859 1.97266 2.25586 2.83203 3.11523 Z M 10.6738 -15.1465 C 13.3398 -17.1387 16.6504 -16.8262 19.0527 -14.4141 L 21.6797 -11.8066 C 21.9141 -11.5723 21.9434 -11.3867 21.8848 -11.0938 L 21.5039 -9.53125 L 23.0762 -7.95898 L 24.043 -8.04688 C 24.3262 -8.07617 24.4141 -8.05664 24.6387 -7.83203 L 25.2637 -7.20703 L 22.5098 -4.46289 L 21.8848 -5.07812 C 21.6602 -5.30273 21.6406 -5.40039 21.6699 -5.68359 L 21.7578 -6.64062 L 20.1953 -8.20312 L 18.5742 -7.89062 C 18.291 -7.83203 18.1445 -7.83203 17.9102 -8.07617 L 15.7324 -10.2539 C 15.5078 -10.4883 15.4785 -10.625 15.6055 -10.9473 L 16.5527 -13.2227 C 14.9512 -14.7559 12.8418 -15.6055 10.8008 -14.9512 C 10.7129 -14.9219 10.6445 -14.9414 10.6152 -14.9805 C 10.5859 -15.0293 10.5859 -15.0781 10.6738 -15.1465 Z M 4.10156 2.41211 C 3.61328 1.91406 3.78906 1.61133 4.12109 1.30859 L 15.0781 -8.80859 L 16.3086 -7.57812 L 6.15234 3.34961 C 5.84961 3.68164 5.46875 3.7793 5.06836 3.37891 Z"/>
  </g>
  <text style="stroke:none;fill:black;font-family:-apple-system,&quot;SF Pro Display&quot;,&quot;SF Pro Text&quot;,Helvetica,sans-serif;font-weight:bold;" transform="matrix(1 0 0 1 1289 1953)">Exporting</text>
  <text style="stroke:none;fill:black;font-family:-apple-system,&quot;SF Pro Display&quot;,&quot;SF Pro Text&quot;,Helvetica,sans-serif;" transform="matrix(1 0 0 1 1289 1971)">Symbols should be outlined when exporting to ensure the</text>
  <text style="stroke:none;fill:black;font-family:-apple-system,&quot;SF Pro Display&quot;,&quot;SF Pro Text&quot;,Helvetica,sans-serif;" transform="matrix(1 0 0 1 1289 1989)">design is preserved when submitting to Xcode.</text>
  <text id="template-version" style="stroke:none;fill:black;font-family:-apple-system,&quot;SF Pro Display&quot;,&quot;SF Pro Text&quot;,Helvetica,sans-serif;text-anchor:end;" transform="matrix(1 0 0 1 3036 1933)">Template v.1.0</text>
  <text style="stroke:none;fill:black;font-family:-apple-system,&quot;SF Pro Display&quot;,&quot;SF Pro Text&quot;,Helvetica,sans-serif;text-anchor:end;" transform="matrix(1 0 0 1 3036 1951)">Generated from archivebox</text>
  <text style="stroke:none;fill:black;font-family:-apple-system,&quot;SF Pro Display&quot;,&quot;SF Pro Text&quot;,Helvetica,sans-serif;text-anchor:end;" transform="matrix(1 0 0 1 3036 1969)">Typeset at 100 points</text>
  <text style="stroke:none;fill:black;font-family:-apple-system,&quot;SF Pro Display&quot;,&quot;SF Pro Text&quot;,Helvetica,sans-serif;" transform="matrix(1 0 0 1 263 726)">Small</text>
  <text style="stroke:none;fill:black;font-family:-apple-system,&quot;SF Pro Display&quot;,&quot;SF Pro Text&quot;,Helvetica,sans-serif;" transform="matrix(1 0 0 1 263 1156)">Medium</text>
  <text style="stroke:none;fill:black;font-family:-apple-system,&quot;SF Pro Display&quot;,&quot;SF Pro Text&quot;,Helvetica,sans-serif;" transform="matrix(1 0 0 1 263 1586)">Large</text>
 </g>
 <g id="Guides">
  <g id="H-reference" style="fill:#27AAE1;stroke:none;" transform="matrix(1 0 0 1 339 696)">
   <path d="M 54.9316 0 L 57.666 0 L 30.5664 -70.459 L 28.0762 -70.459 L 0.976562 0 L 3.66211 0 L 12.9395 -24.4629 L 45.7031 -24.4629 Z M 29.1992 -67.0898 L 29.4434 -67.0898 L 44.8242 -26.709 L 13.8184 -26.709 Z"/>
  </g>
  <line id="Baseline-S" style="fill:none;stroke:#27AAE1;opacity:1;stroke-width:0.577;" x1="263" x2="3036" y1="696" y2="696"/>
  <line id="Capline-S" style="fill:none;stroke:#27AAE1;opacity:1;stroke-width:0.577;" x1="263" x2="3036" y1="625.541" y2="625.541"/>
  <g id="H-reference" style="fill:#27AAE1;stroke:none;" transform="matrix(1 0 0 1 339 1126)">
   <path d="M 54.9316 0 L 57.666 0 L 30.5664 -70.459 L 28.0762 -70.459 L 0.976562 0 L 3.66211 0 L 12.9395 -24.4629 L 45.7031 -24.4629 Z M 29.1992 -67.0898 L 29.4434 -67.0898 L 44.8242 -26.709 L 13.8184 -26.709 Z"/>
  </g>
  <line id="Baseline-M" style="fill:none;stroke:#27AAE1;opacity:1;stroke-width:0.577;" x1="263" x2="3036" y1="1126" y2="1126"/>
  <line id="Capline-M" style="fill:none;stroke:#27AAE1;opacity:1;stroke-width:0.577;" x1="263" x2="3036" y1="1055.54" y2="1055.54"/>
  <g id="H-reference" style="fill:#27AAE1;stroke:none;" transform="matrix(1 0 0 1 339 1556)">
   <path d="M 54.9316 0 L 57.666 0 L 30.5664 -70.459 L 28.0762 -70.459 L 0.976562 0 L 3.66211 0 L 12.9395 -24.4629 L 45.7031 -24.4629 Z M 29.1992 -67.0898 L 29.4434 -67.0898 L 44.8242 -26.709 L 13.8184 -26.709 Z"/>
  </g>
  <line id="Baseline-L" style="fill:none;stroke:#27AAE1;opacity:1;stroke-width:0.577;" x1="263" x2="3036" y1="1556" y2="1556"/>
  <line id="Capline-L" style="fill:none;stroke:#27AAE1;opacity:1;stroke-width:0.577;" x1="263" x2="3036" y1="1485.54" y2="1485.54"/>
  <rect height="119.336" id="left-margin" style="fill:#00AEEF;stroke:none;opacity:0.4;" width="12.4512" x="1388.59" y="1030.79"/>
  <rect height="119.336" id="right-margin" style="fill:#00AEEF;stroke:none;opacity:0.4;" width="12.4512" x="1498.65" y="1030.79"/>
 </g>
 <g id="Symbols">
  <g id="Black-L" transform="matrix(1 0 0 1 2850.15 1556)">
   <path d="M 48.8281 26.5137 L 117.676 26.5137 C 132.666 26.5137 141.357 17.9199 141.357 2.97852 L 141.357 -53.125 C 147.07 -56.2012 150.439 -62.207 150.439 -69.9219 L 150.439 -77.8809 C 150.439 -89.209 143.115 -96.875 131.689 -96.875 L 34.9121 -96.875 C 23.6816 -96.875 16.0645 -89.209 16.0645 -77.8809 L 16.0645 -69.9219 C 16.0645 -62.2559 19.4824 -56.25 25.1953 -53.1738 L 25.1953 2.97852 C 25.1953 17.9199 33.8379 26.5137 48.8281 26.5137 Z M 36.9629 -68.8965 C 34.9609 -68.8965 33.7402 -70.1172 33.7402 -72.168 L 33.7402 -75.6348 C 33.7402 -77.6367 34.9609 -78.8574 36.9629 -78.8574 L 129.541 -78.8574 C 131.592 -78.8574 132.812 -77.6367 132.812 -75.6348 L 132.812 -72.168 C 132.812 -70.1172 131.592 -68.8965 129.541 -68.8965 Z M 51.4648 6.49414 C 47.4609 6.49414 45.4102 4.6875 45.4102 0.439453 L 45.4102 -50.8789 L 121.094 -50.8789 L 121.094 0.439453 C 121.094 4.6875 119.043 6.49414 115.039 6.49414 Z M 64.5996 -24.0723 L 102.002 -24.0723 C 106.104 -24.0723 109.277 -27.1973 109.277 -31.3965 L 109.277 -33.4473 C 109.277 -37.6953 106.152 -40.7227 102.002 -40.7227 L 64.5996 -40.7227 C 60.4492 -40.7227 57.3242 -37.6953 57.3242 -33.4473 L 57.3242 -31.3965 C 57.3242 -27.1973 60.498 -24.0723 64.5996 -24.0723 Z"/>
  </g>
  <g id="Heavy-L" transform="matrix(1 0 0 1 2554.56 1556)">
   <path d="M 47.6074 25.4883 L 116.65 25.4883 C 130.908 25.4883 139.062 17.4805 139.062 3.22266 L 139.062 -54.4922 C 144.824 -57.1289 148.193 -62.793 148.193 -70.2148 L 148.193 -78.5645 C 148.193 -88.916 141.65 -95.8496 131.201 -95.8496 L 33.1055 -95.8496 C 22.9004 -95.8496 16.0645 -88.916 16.0645 -78.5645 L 16.0645 -70.2148 C 16.0645 -62.793 19.4824 -57.1289 25.1953 -54.541 L 25.1953 3.22266 C 25.1953 17.4805 33.3496 25.4883 47.6074 25.4883 Z M 35.1562 -68.6035 C 32.8613 -68.6035 31.5918 -69.9219 31.5918 -72.2168 L 31.5918 -76.5625 C 31.5918 -78.8574 32.8613 -80.1758 35.1562 -80.1758 L 129.15 -80.1758 C 131.445 -80.1758 132.666 -78.8574 132.666 -76.5625 L 132.666 -72.2168 C 132.666 -69.9219 131.445 -68.6035 129.15 -68.6035 Z M 49.6094 8.30078 C 45.0684 8.30078 42.7246 6.10352 42.7246 1.36719 L 42.7246 -52.9297 L 121.582 -52.9297 L 121.582 1.36719 C 121.582 6.10352 119.189 8.30078 114.648 8.30078 Z M 62.8906 -26.4648 L 101.465 -26.4648 C 105.176 -26.4648 107.959 -29.248 107.959 -33.1055 L 107.959 -35.1074 C 107.959 -38.9648 105.225 -41.6504 101.465 -41.6504 L 62.8906 -41.6504 C 59.1309 -41.6504 56.3965 -38.9648 56.3965 -35.1074 L 56.3965 -33.1055 C 56.3965 -29.248 59.1797 -26.4648 62.8906 -26.4648 Z"/>
  </g>
  <g id="Bold-L" transform="matrix(1 0 0 1 2259.09 1556)">
   <path d="M 46.2402 24.3652 L 115.479 24.3652 C 129.004 24.3652 136.523 16.9434 136.523 3.4668 L 136.523 -56.1035 C 142.334 -58.1543 145.703 -63.4277 145.703 -70.5566 L 145.703 -79.3457 C 145.703 -88.5742 139.99 -94.7266 130.664 -94.7266 L 31.1035 -94.7266 C 22.0215 -94.7266 16.0645 -88.5742 16.0645 -79.3457 L 16.0645 -70.5566 C 16.0645 -63.4766 19.4336 -58.2031 25.1953 -56.1523 L 25.1953 3.4668 C 25.1953 16.9922 32.7637 24.3652 46.2402 24.3652 Z M 33.1543 -68.2617 C 30.5176 -68.2617 29.248 -69.6289 29.248 -72.2656 L 29.248 -77.6367 C 29.248 -80.2734 30.5176 -81.6406 33.1543 -81.6406 L 128.662 -81.6406 C 131.25 -81.6406 132.52 -80.2734 132.52 -77.6367 L 132.52 -72.2656 C 132.52 -69.6289 131.25 -68.2617 128.662 -68.2617 Z M 47.5586 10.3027 C 42.3828 10.3027 39.6484 7.66602 39.6484 2.39258 L 39.6484 -55.1758 L 122.07 -55.1758 L 122.07 2.39258 C 122.07 7.66602 119.287 10.3027 114.209 10.3027 Z M 61.0352 -29.1504 L 100.781 -29.1504 C 104.102 -29.1504 106.494 -31.5918 106.494 -35.0098 L 106.494 -36.9629 C 106.494 -40.3809 104.15 -42.7246 100.781 -42.7246 L 61.0352 -42.7246 C 57.666 -42.7246 55.3223 -40.3809 55.3223 -36.9629 L 55.3223 -35.0098 C 55.3223 -31.5918 57.7148 -29.1504 61.0352 -29.1504 Z"/>
  </g>
  <g id="Semibold-L" transform="matrix(1 0 0 1 1963.26 1556)">
   <path d="M 45.3125 23.584 L 114.697 23.584 C 127.637 23.584 134.766 16.6016 134.766 3.66211 L 134.766 -57.3242 C 140.625 -58.9355 143.945 -63.916 143.945 -70.8008 L 143.945 -79.8828 C 143.945 -88.3789 138.867 -93.9453 130.322 -93.9453 L 29.6875 -93.9453 C 21.4355 -93.9453 16.0645 -88.3789 16.0645 -79.8828 L 16.0645 -70.8008 C 16.0645 -63.916 19.4336 -58.9355 25.2441 -57.3242 L 25.2441 3.66211 C 25.2441 16.6016 32.373 23.584 45.3125 23.584 Z M 31.7383 -68.0176 C 28.9062 -68.0176 27.5879 -69.4824 27.5879 -72.2656 L 27.5879 -78.3691 C 27.5879 -81.2012 28.9062 -82.6172 31.7383 -82.6172 L 128.32 -82.6172 C 131.152 -82.6172 132.422 -81.2012 132.422 -78.3691 L 132.422 -72.2656 C 132.422 -69.4824 131.152 -68.0176 128.32 -68.0176 Z M 46.1426 11.6699 C 40.5273 11.6699 37.5488 8.74023 37.5488 3.125 L 37.5488 -56.7383 L 122.461 -56.7383 L 122.461 3.125 C 122.461 8.74023 119.385 11.6699 113.867 11.6699 Z M 59.7168 -31.0547 L 100.342 -31.0547 C 103.369 -31.0547 105.518 -33.2031 105.518 -36.2793 L 105.518 -38.2812 C 105.518 -41.3574 103.369 -43.457 100.342 -43.457 L 59.7168 -43.457 C 56.6895 -43.457 54.5898 -41.3574 54.5898 -38.2812 L 54.5898 -36.2793 C 54.5898 -33.2031 56.6895 -31.0547 59.7168 -31.0547 Z"/>
  </g>
  <g id="Medium-L" transform="matrix(1 0 0 1 1667.21 1556)">
   <path d="M 44.5801 22.998 L 114.111 22.998 C 126.611 22.998 133.447 16.3086 133.447 3.80859 L 133.447 -58.3008 C 139.307 -59.5703 142.627 -64.2578 142.627 -70.9473 L 142.627 -80.2734 C 142.627 -88.1836 138.037 -93.3105 130.029 -93.3105 L 28.6621 -93.3105 C 20.9473 -93.3105 16.0645 -88.1836 16.0645 -80.2734 L 16.0645 -70.9473 C 16.0645 -64.2578 19.3848 -59.5703 25.2441 -58.3008 L 25.2441 3.80859 C 25.2441 16.3574 32.0801 22.998 44.5801 22.998 Z M 30.6641 -67.8711 C 27.6855 -67.8711 26.3184 -69.3359 26.3184 -72.3145 L 26.3184 -78.9551 C 26.3184 -81.9336 27.6855 -83.3984 30.6641 -83.3984 L 128.027 -83.3984 C 131.055 -83.3984 132.373 -81.9336 132.373 -78.9551 L 132.373 -72.3145 C 132.373 -69.3359 131.055 -67.8711 128.027 -67.8711 Z M 45.0195 12.6953 C 39.1602 12.6953 35.9863 9.57031 35.9863 3.66211 L 35.9863 -57.9102 L 122.705 -57.9102 L 122.705 3.66211 C 122.705 9.57031 119.434 12.6953 113.672 12.6953 Z M 58.7402 -32.4219 L 100 -32.4219 C 102.832 -32.4219 104.736 -34.4238 104.736 -37.3047 L 104.736 -39.209 C 104.736 -42.1387 102.832 -44.043 100 -44.043 L 58.7402 -44.043 C 55.9082 -44.043 54.0039 -42.1387 54.0039 -39.209 L 54.0039 -37.3047 C 54.0039 -34.4238 55.957 -32.4219 58.7402 -32.4219 Z"/>
  </g>
  <g id="Regular-L" transform="matrix(1 0 0 1 1371.35 1556)">
   <path d="M 43.6523 22.2168 L 113.281 22.2168 C 125.293 22.2168 131.738 15.9668 131.738 4.00391 L 131.738 -59.6191 C 137.646 -60.4004 140.918 -64.7461 140.918 -71.1914 L 140.918 -80.8105 C 140.918 -87.9883 136.914 -92.5293 129.688 -92.5293 L 27.2949 -92.5293 C 20.3613 -92.5293 16.0645 -87.9883 16.0645 -80.8105 L 16.0645 -71.1914 C 16.0645 -64.7461 19.3359 -60.4004 25.2441 -59.6191 L 25.2441 4.00391 C 25.2441 16.0156 31.6895 22.2168 43.6523 22.2168 Z M 29.2969 -67.627 C 26.123 -67.627 24.707 -69.1406 24.707 -72.3633 L 24.707 -79.6875 C 24.707 -82.8613 26.123 -84.375 29.2969 -84.375 L 127.734 -84.375 C 130.908 -84.375 132.275 -82.8613 132.275 -79.6875 L 132.275 -72.3633 C 132.275 -69.1406 130.908 -67.627 127.734 -67.627 Z M 43.6523 14.0625 C 37.3047 14.0625 33.8867 10.6445 33.8867 4.3457 L 33.8867 -59.4727 L 123.047 -59.4727 L 123.047 4.3457 C 123.047 10.6445 119.531 14.0625 113.33 14.0625 Z M 57.4219 -34.2773 L 99.5605 -34.2773 C 102.1 -34.2773 103.76 -35.9863 103.76 -38.5742 L 103.76 -40.4785 C 103.76 -43.1152 102.1 -44.7266 99.5605 -44.7266 L 57.4219 -44.7266 C 54.9316 -44.7266 53.2715 -43.1152 53.2715 -40.4785 L 53.2715 -38.5742 C 53.2715 -35.9863 54.9316 -34.2773 57.4219 -34.2773 Z"/>
  </g>
  <g id="Light-L" transform="matrix(1 0 0 1 1075.4 1556)">
   <path d="M 42.5781 21.4355 L 112.891 21.4355 C 124.365 21.4355 130.469 15.332 130.469 3.95508 L 130.469 -60.8398 C 136.182 -61.3281 139.404 -65.3809 139.404 -71.3867 L 139.404 -81.0547 C 139.404 -87.5 135.693 -91.6992 129.199 -91.6992 L 26.2207 -91.6992 C 19.9707 -91.6992 16.0645 -87.5 16.0645 -81.0547 L 16.0645 -71.3867 C 16.0645 -65.3809 19.2871 -61.3281 24.9512 -60.8398 L 24.9512 3.95508 C 24.9512 15.4297 31.1035 21.4355 42.5781 21.4355 Z M 27.4902 -67.0898 C 24.2676 -67.0898 22.7051 -68.8477 22.7051 -72.1191 L 22.7051 -80.3711 C 22.7051 -83.5938 24.2676 -85.4004 27.4902 -85.4004 L 127.979 -85.4004 C 131.201 -85.4004 132.764 -83.5938 132.764 -80.3711 L 132.764 -72.1191 C 132.764 -68.8477 131.201 -67.0898 127.979 -67.0898 Z M 42.627 15.0879 C 35.4004 15.0879 31.5918 11.2793 31.5918 4.10156 L 31.5918 -60.791 L 123.877 -60.791 L 123.877 4.10156 C 123.877 11.2793 119.824 15.0879 112.842 15.0879 Z M 56.2988 -35.8398 L 99.1699 -35.8398 C 101.514 -35.8398 102.881 -37.3535 102.881 -39.7461 L 102.881 -41.5527 C 102.881 -43.9453 101.514 -45.4102 99.1699 -45.4102 L 56.2988 -45.4102 C 54.0039 -45.4102 52.5879 -43.9453 52.5879 -41.5527 L 52.5879 -39.7461 C 52.5879 -37.3535 54.0039 -35.8398 56.2988 -35.8398 Z"/>
  </g>
  <g id="Thin-L" transform="matrix(1 0 0 1 779.689 1556)">
   <path d="M 41.1133 20.3613 L 112.305 20.3613 C 123.096 20.3613 128.857 14.502 128.857 3.85742 L 128.857 -62.5 C 134.082 -62.5 137.402 -66.1621 137.402 -71.6309 L 137.402 -81.3965 C 137.402 -86.9141 134.082 -90.5762 128.564 -90.5762 L 24.8535 -90.5762 C 19.4336 -90.5762 16.0645 -86.9141 16.0645 -81.3965 L 16.0645 -71.6309 C 16.0645 -66.2598 19.2871 -62.5977 24.6094 -62.5 L 24.6094 3.85742 C 24.6094 14.6484 30.3223 20.3613 41.1133 20.3613 Z M 25.1465 -66.3574 C 21.875 -66.3574 19.9707 -68.5059 19.9707 -71.7773 L 19.9707 -81.25 C 19.9707 -84.5703 21.875 -86.7188 25.1465 -86.7188 L 128.32 -86.7188 C 131.592 -86.7188 133.447 -84.5703 133.447 -81.25 L 133.447 -71.7773 C 133.447 -68.5059 131.592 -66.3574 128.32 -66.3574 Z M 41.2598 16.5039 C 32.9102 16.5039 28.5156 12.1094 28.5156 3.75977 L 28.5156 -62.5 L 124.902 -62.5 L 124.902 3.75977 C 124.902 12.1094 120.264 16.5039 112.158 16.5039 Z M 54.834 -37.9395 L 98.6328 -37.9395 C 100.732 -37.9395 101.758 -39.209 101.758 -41.3086 L 101.758 -42.9199 C 101.758 -45.0195 100.732 -46.2891 98.6328 -46.2891 L 54.834 -46.2891 C 52.7344 -46.2891 51.709 -45.0195 51.709 -42.9199 L 51.709 -41.3086 C 51.709 -39.209 52.7344 -37.9395 54.834 -37.9395 Z"/>
  </g>
  <g id="Ultralight-L" transform="matrix(1 0 0 1 483.49 1556)">
   <path d="M 40.3809 19.7754 L 112.012 19.7754 C 122.461 19.7754 128.027 14.0625 128.027 3.80859 L 128.027 -63.3789 L 128.271 -63.3789 C 133.252 -63.3789 136.377 -66.748 136.377 -71.7773 L 136.377 -81.5918 C 136.377 -86.5723 133.252 -89.9902 128.271 -89.9902 L 24.1699 -89.9902 C 19.1406 -89.9902 16.0645 -86.5723 16.0645 -81.5918 L 16.0645 -71.7773 C 16.0645 -66.748 19.1895 -63.3789 24.1699 -63.3789 L 24.4141 -63.3789 L 24.4141 3.80859 C 24.4141 14.2578 29.9316 19.7754 40.3809 19.7754 Z M 23.9258 -65.9668 C 20.6055 -65.9668 18.6035 -68.3105 18.6035 -71.6309 L 18.6035 -81.7383 C 18.6035 -85.0586 20.6055 -87.4023 23.9258 -87.4023 L 128.516 -87.4023 C 131.787 -87.4023 133.789 -85.0586 133.789 -81.7383 L 133.789 -71.6309 C 133.789 -68.3105 131.787 -65.9668 128.516 -65.9668 Z M 40.5762 17.1875 C 31.5918 17.1875 26.9531 12.5488 26.9531 3.56445 L 26.9531 -63.3789 L 125.439 -63.3789 L 125.439 3.56445 C 125.439 12.5488 120.459 17.1875 111.865 17.1875 Z M 54.0527 -39.0137 L 98.3398 -39.0137 C 100.293 -39.0137 101.172 -40.1367 101.172 -42.0898 L 101.172 -43.6523 C 101.172 -45.6055 100.293 -46.7285 98.3398 -46.7285 L 54.0527 -46.7285 C 52.0996 -46.7285 51.2207 -45.6055 51.2207 -43.6523 L 51.2207 -42.0898 C 51.2207 -40.1367 52.0996 -39.0137 54.0527 -39.0137 Z"/>
  </g>
  <g id="Black-M" transform="matrix(1 0 0 1 2867.75 1126)">
   <path d="M 38.916 13.5742 L 92.3828 13.5742 C 104.639 13.5742 111.914 6.25 111.914 -6.00586 L 111.914 -47.9492 C 116.26 -50.7812 118.848 -55.7129 118.848 -61.7676 L 118.848 -67.4805 C 118.848 -77.1973 112.207 -83.9355 102.393 -83.9355 L 28.9551 -83.9355 C 19.1895 -83.9355 12.4512 -77.1973 12.4512 -67.4805 L 12.4512 -61.7676 C 12.4512 -55.7617 15.0391 -50.8301 19.3359 -47.998 L 19.3359 -6.00586 C 19.3359 6.25 26.6113 13.5742 38.916 13.5742 Z M 30.127 -61.4258 C 28.9551 -61.4258 27.9297 -62.4512 27.9297 -63.6719 L 27.9297 -65.5762 C 27.9297 -66.7969 28.9551 -67.8223 30.127 -67.8223 L 101.123 -67.8223 C 102.344 -67.8223 103.369 -66.7969 103.369 -65.5762 L 103.369 -63.6719 C 103.369 -62.4512 102.344 -61.4258 101.123 -61.4258 Z M 41.8457 -4.73633 C 39.0137 -4.73633 37.6465 -5.85938 37.6465 -8.93555 L 37.6465 -45.3125 L 93.6523 -45.3125 L 93.6523 -8.93555 C 93.6523 -5.85938 92.2852 -4.73633 89.4531 -4.73633 Z M 51.709 -24.1699 L 79.6387 -24.1699 C 83.2031 -24.1699 85.9863 -26.9043 85.9863 -30.5664 L 85.9863 -32.1777 C 85.9863 -35.8398 83.252 -38.5742 79.6387 -38.5742 L 51.709 -38.5742 C 48.0957 -38.5742 45.3613 -35.8398 45.3613 -32.1777 L 45.3613 -30.5664 C 45.3613 -26.9043 48.1445 -24.1699 51.709 -24.1699 Z"/>
  </g>
  <g id="Heavy-M" transform="matrix(1 0 0 1 2572.09 1126)">
   <path d="M 37.8418 12.6465 L 91.3574 12.6465 C 102.979 12.6465 109.766 5.9082 109.766 -5.71289 L 109.766 -49.0723 C 114.16 -51.5137 116.748 -56.1523 116.748 -62.0605 L 116.748 -68.1641 C 116.748 -77.002 110.938 -83.0566 102.051 -83.0566 L 27.2461 -83.0566 C 18.457 -83.0566 12.4512 -77.002 12.4512 -68.1641 L 12.4512 -62.0605 C 12.4512 -56.2012 15.0879 -51.5625 19.4336 -49.1211 L 19.4336 -5.71289 C 19.4336 5.9082 26.2207 12.6465 37.8418 12.6465 Z M 28.6133 -61.2793 C 27.0996 -61.2793 26.123 -62.2559 26.123 -63.7695 L 26.123 -66.4551 C 26.123 -67.9688 27.0996 -68.9941 28.6133 -68.9941 L 100.586 -68.9941 C 102.1 -68.9941 103.076 -67.9688 103.076 -66.4551 L 103.076 -63.7695 C 103.076 -62.2559 102.1 -61.2793 100.586 -61.2793 Z M 40.0879 -3.07617 C 36.8652 -3.07617 35.2539 -4.49219 35.2539 -7.86133 L 35.2539 -47.2168 L 93.9453 -47.2168 L 93.9453 -7.86133 C 93.9453 -4.49219 92.334 -3.07617 89.1113 -3.07617 Z M 50.1953 -26.3672 L 79.1016 -26.3672 C 82.3242 -26.3672 84.7656 -28.8574 84.7656 -32.1289 L 84.7656 -33.7402 C 84.7656 -37.0117 82.373 -39.4043 79.1016 -39.4043 L 50.1953 -39.4043 C 46.9238 -39.4043 44.4824 -37.0117 44.4824 -33.7402 L 44.4824 -32.1289 C 44.4824 -28.8574 46.9727 -26.3672 50.1953 -26.3672 Z"/>
  </g>
  <g id="Bold-M" transform="matrix(1 0 0 1 2276.53 1126)">
   <path d="M 36.6699 11.6699 L 90.2344 11.6699 C 101.172 11.6699 107.373 5.51758 107.373 -5.37109 L 107.373 -50.3906 C 111.816 -52.3438 114.453 -56.6895 114.453 -62.4023 L 114.453 -68.9453 C 114.453 -76.8066 109.521 -82.0312 101.611 -82.0312 L 25.3418 -82.0312 C 17.627 -82.0312 12.4512 -76.8066 12.4512 -68.9453 L 12.4512 -62.4023 C 12.4512 -56.6895 15.0879 -52.3926 19.5312 -50.4395 L 19.5312 -5.37109 C 19.5312 5.56641 25.7324 11.6699 36.6699 11.6699 Z M 26.9531 -61.0352 C 25.0977 -61.0352 24.1211 -62.0605 24.1211 -63.916 L 24.1211 -67.4316 C 24.1211 -69.2871 25.0977 -70.3125 26.9531 -70.3125 L 100 -70.3125 C 101.807 -70.3125 102.783 -69.2871 102.783 -67.4316 L 102.783 -63.916 C 102.783 -62.0605 101.807 -61.0352 100 -61.0352 Z M 38.1348 -1.17188 C 34.5215 -1.17188 32.6172 -2.92969 32.6172 -6.68945 L 32.6172 -49.3164 L 94.2871 -49.3164 L 94.2871 -6.68945 C 94.2871 -2.92969 92.3828 -1.17188 88.7695 -1.17188 Z M 48.4375 -28.8574 L 78.5156 -28.8574 C 81.3477 -28.8574 83.4473 -30.957 83.4473 -33.8867 L 83.4473 -35.4492 C 83.4473 -38.3301 81.3477 -40.3809 78.5156 -40.3809 L 48.4375 -40.3809 C 45.6055 -40.3809 43.5059 -38.3301 43.5059 -35.4492 L 43.5059 -33.8867 C 43.5059 -30.957 45.6055 -28.8574 48.4375 -28.8574 Z"/>
  </g>
  <g id="Semibold-M" transform="matrix(1 0 0 1 1980.62 1126)">
   <path d="M 35.8887 10.9863 L 89.4531 10.9863 C 99.8535 10.9863 105.713 5.27344 105.713 -5.17578 L 105.713 -51.416 C 110.254 -52.9785 112.842 -57.0801 112.842 -62.5977 L 112.842 -69.4824 C 112.842 -76.6602 108.496 -81.3477 101.318 -81.3477 L 24.0234 -81.3477 C 17.041 -81.3477 12.4512 -76.6602 12.4512 -69.4824 L 12.4512 -62.5977 C 12.4512 -57.0801 15.0879 -52.9785 19.6289 -51.416 L 19.6289 -5.17578 C 19.6289 5.27344 25.4395 10.9863 35.8887 10.9863 Z M 25.7812 -60.8887 C 23.7305 -60.8887 22.7539 -61.9141 22.7539 -63.9648 L 22.7539 -68.1152 C 22.7539 -70.166 23.7305 -71.1914 25.7812 -71.1914 L 99.5605 -71.1914 C 101.611 -71.1914 102.588 -70.166 102.588 -68.1152 L 102.588 -63.9648 C 102.588 -61.9141 101.611 -60.8887 99.5605 -60.8887 Z M 36.7676 0.0976562 C 32.8613 0.0976562 30.7617 -1.85547 30.7617 -5.85938 L 30.7617 -50.7324 L 94.5312 -50.7324 L 94.5312 -5.85938 C 94.5312 -1.85547 92.3828 0.0976562 88.5254 0.0976562 Z M 47.2656 -30.6152 L 78.125 -30.6152 C 80.6641 -30.6152 82.5195 -32.4707 82.5195 -35.0586 L 82.5195 -36.6211 C 82.5195 -39.2578 80.6641 -41.0645 78.125 -41.0645 L 47.2656 -41.0645 C 44.6777 -41.0645 42.8711 -39.2578 42.8711 -36.6211 L 42.8711 -35.0586 C 42.8711 -32.4707 44.7266 -30.6152 47.2656 -30.6152 Z"/>
  </g>
  <g id="Medium-M" transform="matrix(1 0 0 1 1684.52 1126)">
   <path d="M 35.2539 10.4492 L 88.8184 10.4492 C 98.9258 10.4492 104.443 5.07812 104.443 -4.98047 L 104.443 -52.2461 C 109.033 -53.4668 111.621 -57.373 111.621 -62.793 L 111.621 -69.873 C 111.621 -76.5137 107.764 -80.8105 101.074 -80.8105 L 23.0469 -80.8105 C 16.6016 -80.8105 12.4512 -76.5137 12.4512 -69.873 L 12.4512 -62.793 C 12.4512 -57.373 15.0391 -53.5156 19.6777 -52.2461 L 19.6777 -4.98047 C 19.6777 5.07812 25.1953 10.4492 35.2539 10.4492 Z M 24.9023 -60.791 C 22.6562 -60.791 21.6797 -61.8164 21.6797 -64.0625 L 21.6797 -68.6035 C 21.6797 -70.8496 22.6562 -71.875 24.9023 -71.875 L 99.2676 -71.875 C 101.465 -71.875 102.393 -70.8496 102.393 -68.6035 L 102.393 -64.0625 C 102.393 -61.8164 101.465 -60.791 99.2676 -60.791 Z M 35.7422 1.12305 C 31.6406 1.12305 29.3945 -1.07422 29.3945 -5.22461 L 29.3945 -51.8555 L 94.6777 -51.8555 L 94.6777 -5.22461 C 94.6777 -1.07422 92.4316 1.12305 88.3789 1.12305 Z M 46.3379 -31.8848 L 77.7832 -31.8848 C 80.127 -31.8848 81.7871 -33.5938 81.7871 -35.9863 L 81.7871 -37.5488 C 81.7871 -39.9414 80.127 -41.5527 77.7832 -41.5527 L 46.3379 -41.5527 C 43.9941 -41.5527 42.334 -39.9414 42.334 -37.5488 L 42.334 -35.9863 C 42.334 -33.5938 43.9941 -31.8848 46.3379 -31.8848 Z"/>
  </g>
  <g id="Regular-M" transform="matrix(1 0 0 1 1388.59 1126)">
   <path d="M 34.4727 9.76562 L 88.0371 9.76562 C 97.6562 9.76562 102.783 4.78516 102.783 -4.78516 L 102.783 -53.418 C 107.52 -54.1992 110.059 -57.7637 110.059 -62.9883 L 110.059 -70.4102 C 110.059 -76.3672 106.787 -80.127 100.781 -80.127 L 21.7285 -80.127 C 16.0156 -80.127 12.4512 -76.3672 12.4512 -70.4102 L 12.4512 -62.9883 C 12.4512 -57.7637 14.9902 -54.1992 19.7266 -53.418 L 19.7266 -4.78516 C 19.7266 4.83398 24.8535 9.76562 34.4727 9.76562 Z M 23.7305 -60.6445 C 21.2891 -60.6445 20.3125 -61.6699 20.3125 -64.1113 L 20.3125 -69.2871 C 20.3125 -71.7285 21.2891 -72.7539 23.7305 -72.7539 L 98.8281 -72.7539 C 101.27 -72.7539 102.197 -71.7285 102.197 -69.2871 L 102.197 -64.1113 C 102.197 -61.6699 101.27 -60.6445 98.8281 -60.6445 Z M 34.375 2.39258 C 29.9805 2.39258 27.5879 0 27.5879 -4.39453 L 27.5879 -53.2715 L 94.9219 -53.2715 L 94.9219 -4.39453 C 94.9219 0 92.4805 2.39258 88.1348 2.39258 Z M 45.166 -33.5938 L 77.3926 -33.5938 C 79.4434 -33.5938 80.9082 -35.0098 80.9082 -37.1582 L 80.9082 -38.7207 C 80.9082 -40.8691 79.4434 -42.2363 77.3926 -42.2363 L 45.166 -42.2363 C 43.1152 -42.2363 41.6992 -40.8691 41.6992 -38.7207 L 41.6992 -37.1582 C 41.6992 -35.0098 43.1152 -33.5938 45.166 -33.5938 Z"/>
  </g>
  <g id="Light-M" transform="matrix(1 0 0 1 1092.56 1126)">
   <path d="M 33.4961 9.0332 L 87.6465 9.0332 C 96.7773 9.0332 101.66 4.24805 101.66 -4.83398 L 101.66 -54.541 C 106.201 -55.0293 108.691 -58.3008 108.691 -63.1836 L 108.691 -70.6543 C 108.691 -75.9766 105.713 -79.3945 100.342 -79.3945 L 20.8008 -79.3945 C 15.6738 -79.3945 12.4512 -75.9766 12.4512 -70.6543 L 12.4512 -63.1836 C 12.4512 -58.3008 14.9902 -55.0293 19.4824 -54.541 L 19.4824 -4.83398 C 19.4824 4.29688 24.3652 9.0332 33.4961 9.0332 Z M 22.1191 -60.1562 C 19.6289 -60.1562 18.5059 -61.4258 18.5059 -63.916 L 18.5059 -69.9219 C 18.5059 -72.4121 19.6289 -73.6328 22.1191 -73.6328 L 99.0723 -73.6328 C 101.562 -73.6328 102.686 -72.4121 102.686 -69.9219 L 102.686 -63.916 C 102.686 -61.4258 101.562 -60.1562 99.0723 -60.1562 Z M 33.4961 3.32031 C 28.3203 3.32031 25.5371 0.537109 25.5371 -4.63867 L 25.5371 -54.4434 L 95.6543 -54.4434 L 95.6543 -4.63867 C 95.6543 0.537109 92.7246 3.32031 87.6953 3.32031 Z M 44.1406 -35.0098 L 77.0508 -35.0098 C 78.9062 -35.0098 80.127 -36.2793 80.127 -38.2324 L 80.127 -39.6484 C 80.127 -41.6016 78.9062 -42.8223 77.0508 -42.8223 L 44.1406 -42.8223 C 42.2852 -42.8223 41.0645 -41.6016 41.0645 -39.6484 L 41.0645 -38.2324 C 41.0645 -36.2793 42.2852 -35.0098 44.1406 -35.0098 Z"/>
  </g>
  <g id="Thin-M" transform="matrix(1 0 0 1 796.754 1126)">
   <path d="M 32.1777 8.05664 L 87.1582 8.05664 C 95.7031 8.05664 100.195 3.4668 100.195 -4.93164 L 100.195 -56.0059 C 104.395 -56.1523 106.885 -59.082 106.885 -63.3789 L 106.885 -70.9473 C 106.885 -75.3906 104.248 -78.3691 99.8047 -78.3691 L 19.5801 -78.3691 C 15.1855 -78.3691 12.4512 -75.3906 12.4512 -70.9473 L 12.4512 -63.3789 C 12.4512 -59.082 14.9414 -56.1523 19.1406 -56.0059 L 19.1406 -4.93164 C 19.1406 3.56445 23.6816 8.05664 32.1777 8.05664 Z M 20.0195 -59.5215 C 17.4805 -59.5215 16.0645 -61.084 16.0645 -63.623 L 16.0645 -70.7031 C 16.0645 -73.2422 17.4805 -74.8535 20.0195 -74.8535 L 99.3652 -74.8535 C 101.904 -74.8535 103.271 -73.2422 103.271 -70.7031 L 103.271 -63.623 C 103.271 -61.084 101.904 -59.5215 99.3652 -59.5215 Z M 32.2754 4.54102 C 26.0254 4.54102 22.7539 1.26953 22.7539 -4.93164 L 22.7539 -55.957 L 96.582 -55.957 L 96.582 -4.93164 C 96.582 1.26953 93.1152 4.54102 87.0605 4.54102 Z M 42.8223 -36.8652 L 76.5625 -36.8652 C 78.2227 -36.8652 79.1016 -37.9395 79.1016 -39.5996 L 79.1016 -40.918 C 79.1016 -42.5781 78.2227 -43.6035 76.5625 -43.6035 L 42.8223 -43.6035 C 41.1621 -43.6035 40.2344 -42.5781 40.2344 -40.918 L 40.2344 -39.5996 C 40.2344 -37.9395 41.1621 -36.8652 42.8223 -36.8652 Z"/>
  </g>
  <g id="Ultralight-M" transform="matrix(1 0 0 1 500.483 1126)">
   <path d="M 31.543 7.56836 L 86.9141 7.56836 C 95.1172 7.56836 99.4629 3.07617 99.4629 -4.98047 L 99.4629 -56.7871 L 99.5117 -56.7871 C 103.516 -56.7871 106.006 -59.4727 106.006 -63.5254 L 106.006 -71.0938 C 106.006 -75.1465 103.516 -77.832 99.5117 -77.832 L 18.9453 -77.832 C 14.9414 -77.832 12.4512 -75.1465 12.4512 -71.0938 L 12.4512 -63.5254 C 12.4512 -59.4727 14.9414 -56.7871 18.9453 -56.7871 L 18.9941 -56.7871 L 18.9941 -4.98047 C 18.9941 3.22266 23.3398 7.56836 31.543 7.56836 Z M 18.8965 -59.1797 C 16.3574 -59.1797 14.8438 -60.9375 14.8438 -63.4766 L 14.8438 -71.1426 C 14.8438 -73.6816 16.3574 -75.4395 18.8965 -75.4395 L 99.5117 -75.4395 C 102.1 -75.4395 103.613 -73.6816 103.613 -71.1426 L 103.613 -63.4766 C 103.613 -60.9375 102.1 -59.1797 99.5117 -59.1797 Z M 31.6406 5.17578 C 24.9023 5.17578 21.3867 1.66016 21.3867 -5.12695 L 21.3867 -56.7871 L 97.0703 -56.7871 L 97.0703 -5.12695 C 97.0703 1.66016 93.3105 5.17578 86.7676 5.17578 Z M 42.1387 -37.8418 L 76.3184 -37.8418 C 77.8809 -37.8418 78.6133 -38.7695 78.6133 -40.2832 L 78.6133 -41.5527 C 78.6133 -43.1152 77.8809 -44.043 76.3184 -44.043 L 42.1387 -44.043 C 40.5762 -44.043 39.8438 -43.1152 39.8438 -41.5527 L 39.8438 -40.2832 C 39.8438 -38.7695 40.5762 -37.8418 42.1387 -37.8418 Z"/>
  </g>
  <g id="Black-S" transform="matrix(1 0 0 1 2882.03 696)">
   <path d="M 30.4199 2.92969 L 72.3145 2.92969 C 81.8848 2.92969 87.5488 -2.73438 87.5488 -12.3047 L 87.5488 -45.2637 C 90.9668 -47.4609 92.9688 -51.3184 92.9688 -56.0547 L 92.9688 -60.5469 C 92.9688 -68.1152 87.8418 -73.3398 80.2246 -73.3398 L 22.5586 -73.3398 C 14.9902 -73.3398 9.76562 -68.1152 9.76562 -60.5469 L 9.76562 -56.0547 C 9.76562 -51.3184 11.8164 -47.5098 15.1855 -45.3125 L 15.1855 -12.3047 C 15.1855 -2.73438 20.8496 2.92969 30.4199 2.92969 Z M 23.5352 -55.7617 C 22.5586 -55.7617 21.7773 -56.543 21.7773 -57.5195 L 21.7773 -59.082 C 21.7773 -60.0586 22.5586 -60.8398 23.5352 -60.8398 L 79.1992 -60.8398 C 80.1758 -60.8398 80.957 -60.0586 80.957 -59.082 L 80.957 -57.5195 C 80.957 -56.543 80.1758 -55.7617 79.1992 -55.7617 Z M 32.666 -11.2305 C 30.4199 -11.2305 29.3457 -12.1094 29.3457 -14.5508 L 29.3457 -43.2617 L 73.3887 -43.2617 L 73.3887 -14.5508 C 73.3887 -12.1094 72.3145 -11.2305 70.0684 -11.2305 Z M 40.4297 -26.709 L 62.3535 -26.709 C 65.1367 -26.709 67.2852 -28.8574 67.2852 -31.6895 L 67.2852 -32.959 C 67.2852 -35.791 65.1855 -37.8906 62.3535 -37.8906 L 40.4297 -37.8906 C 37.5977 -37.8906 35.498 -35.791 35.498 -32.959 L 35.498 -31.6895 C 35.498 -28.8574 37.6465 -26.709 40.4297 -26.709 Z"/>
  </g>
  <g id="Heavy-S" transform="matrix(1 0 0 1 2586.03 696)">
   <path d="M 29.7363 2.34375 L 71.582 2.34375 C 80.7129 2.34375 86.0352 -2.92969 86.0352 -12.0605 L 86.0352 -45.9961 C 89.502 -47.9004 91.5527 -51.6113 91.5527 -56.25 L 91.5527 -61.0352 C 91.5527 -68.0176 86.9629 -72.7539 79.9805 -72.7539 L 21.3379 -72.7539 C 14.4531 -72.7539 9.76562 -68.0176 9.76562 -61.0352 L 9.76562 -56.25 C 9.76562 -51.6113 11.8164 -47.9492 15.2832 -46.0449 L 15.2832 -12.0605 C 15.2832 -2.92969 20.6055 2.34375 29.7363 2.34375 Z M 22.5586 -55.6641 C 21.3379 -55.6641 20.6055 -56.4453 20.6055 -57.6172 L 20.6055 -59.668 C 20.6055 -60.8887 21.3379 -61.6211 22.5586 -61.6211 L 78.7598 -61.6211 C 79.9316 -61.6211 80.7129 -60.8887 80.7129 -59.668 L 80.7129 -57.6172 C 80.7129 -56.4453 79.9316 -55.6641 78.7598 -55.6641 Z M 31.4453 -10.0586 C 29.0039 -10.0586 27.7832 -11.1328 27.7832 -13.7207 L 27.7832 -44.5801 L 73.5352 -44.5801 L 73.5352 -13.7207 C 73.5352 -11.1328 72.3145 -10.0586 69.873 -10.0586 Z M 39.3555 -28.2715 L 62.0117 -28.2715 C 64.502 -28.2715 66.4551 -30.1758 66.4551 -32.7637 L 66.4551 -34.0332 C 66.4551 -36.6211 64.5508 -38.4766 62.0117 -38.4766 L 39.3555 -38.4766 C 36.8164 -38.4766 34.9121 -36.6211 34.9121 -34.0332 L 34.9121 -32.7637 C 34.9121 -30.1758 36.8164 -28.2715 39.3555 -28.2715 Z"/>
  </g>
  <g id="Bold-S" transform="matrix(1 0 0 1 2290.12 696)">
   <path d="M 28.9551 1.66016 L 70.752 1.66016 C 79.3945 1.66016 84.3262 -3.17383 84.3262 -11.8164 L 84.3262 -46.9238 C 87.8906 -48.4863 89.9414 -51.9043 89.9414 -56.4941 L 89.9414 -61.6211 C 89.9414 -67.8711 86.0352 -72.0703 79.6875 -72.0703 L 20.0195 -72.0703 C 13.8672 -72.0703 9.76562 -67.8711 9.76562 -61.6211 L 9.76562 -56.4941 C 9.76562 -51.9531 11.8652 -48.4863 15.3809 -46.9238 L 15.3809 -11.8164 C 15.3809 -3.17383 20.3125 1.66016 28.9551 1.66016 Z M 21.4355 -55.5664 C 20.0195 -55.5664 19.2871 -56.2988 19.2871 -57.7637 L 19.2871 -60.3516 C 19.2871 -61.8164 20.0195 -62.5 21.4355 -62.5 L 78.2715 -62.5 C 79.6875 -62.5 80.4199 -61.8164 80.4199 -60.3516 L 80.4199 -57.7637 C 80.4199 -56.2988 79.6875 -55.5664 78.2715 -55.5664 Z M 30.0293 -8.74023 C 27.3926 -8.74023 25.9766 -10.0098 25.9766 -12.7441 L 25.9766 -46.0449 L 73.7305 -46.0449 L 73.7305 -12.7441 C 73.7305 -10.0098 72.3145 -8.74023 69.6777 -8.74023 Z M 38.1348 -29.9805 L 61.5723 -29.9805 C 63.8184 -29.9805 65.5273 -31.6406 65.5273 -33.9844 L 65.5273 -35.2539 C 65.5273 -37.5488 63.8672 -39.1602 61.5723 -39.1602 L 38.1348 -39.1602 C 35.8887 -39.1602 34.2285 -37.5488 34.2285 -35.2539 L 34.2285 -33.9844 C 34.2285 -31.6406 35.9375 -29.9805 38.1348 -29.9805 Z"/>
  </g>
  <g id="Semibold-S" transform="matrix(1 0 0 1 1993.97 696)">
   <path d="M 28.418 1.17188 L 70.166 1.17188 C 78.5156 1.17188 83.1543 -3.32031 83.1543 -11.6699 L 83.1543 -47.6074 C 86.7676 -48.877 88.8184 -52.1484 88.8184 -56.6406 L 88.8184 -62.0117 C 88.8184 -67.8223 85.3516 -71.582 79.4922 -71.582 L 19.0918 -71.582 C 13.4766 -71.582 9.76562 -67.8223 9.76562 -62.0117 L 9.76562 -56.6406 C 9.76562 -52.1484 11.8164 -48.877 15.4785 -47.6074 L 15.4785 -11.6699 C 15.4785 -3.32031 20.1172 1.17188 28.418 1.17188 Z M 20.7031 -55.5176 C 19.0918 -55.5176 18.4082 -56.2012 18.4082 -57.8125 L 18.4082 -60.791 C 18.4082 -62.4023 19.0918 -63.1348 20.7031 -63.1348 L 77.9297 -63.1348 C 79.541 -63.1348 80.2246 -62.4023 80.2246 -60.791 L 80.2246 -57.8125 C 80.2246 -56.2012 79.541 -55.5176 77.9297 -55.5176 Z M 29.0527 -7.8125 C 26.2695 -7.8125 24.7559 -9.22852 24.7559 -12.1094 L 24.7559 -47.0703 L 73.8281 -47.0703 L 73.8281 -12.1094 C 73.8281 -9.22852 72.3145 -7.8125 69.5312 -7.8125 Z M 37.3047 -31.2012 L 61.3281 -31.2012 C 63.3301 -31.2012 64.8926 -32.666 64.8926 -34.8145 L 64.8926 -36.0352 C 64.8926 -38.1836 63.3789 -39.5996 61.3281 -39.5996 L 37.3047 -39.5996 C 35.2539 -39.5996 33.7891 -38.1836 33.7891 -36.0352 L 33.7891 -34.8145 C 33.7891 -32.666 35.3027 -31.2012 37.3047 -31.2012 Z"/>
  </g>
  <g id="Medium-S" transform="matrix(1 0 0 1 1697.68 696)">
   <path d="M 28.0273 0.830078 L 69.7266 0.830078 C 77.832 0.830078 82.2266 -3.4668 82.2266 -11.5234 L 82.2266 -48.1934 C 85.9375 -49.2188 87.9883 -52.3438 87.9883 -56.7383 L 87.9883 -62.3047 C 87.9883 -67.7246 84.8633 -71.2402 79.3457 -71.2402 L 18.4082 -71.2402 C 13.1348 -71.2402 9.76562 -67.7246 9.76562 -62.3047 L 9.76562 -56.7383 C 9.76562 -52.3438 11.8164 -49.2188 15.5273 -48.1934 L 15.5273 -11.5234 C 15.5273 -3.4668 19.9219 0.830078 28.0273 0.830078 Z M 20.1172 -55.4688 C 18.4082 -55.4688 17.7246 -56.1523 17.7246 -57.9102 L 17.7246 -61.1816 C 17.7246 -62.8906 18.4082 -63.5742 20.1172 -63.5742 L 77.6855 -63.5742 C 79.3945 -63.5742 80.0781 -62.8906 80.0781 -61.1816 L 80.0781 -57.9102 C 80.0781 -56.1523 79.3945 -55.4688 77.6855 -55.4688 Z M 28.3691 -7.12891 C 25.4395 -7.12891 23.8281 -8.69141 23.8281 -11.6211 L 23.8281 -47.8027 L 73.9258 -47.8027 L 73.9258 -11.6211 C 73.9258 -8.69141 72.3145 -7.12891 69.4336 -7.12891 Z M 36.7188 -32.0801 L 61.084 -32.0801 C 62.9883 -32.0801 64.4043 -33.4473 64.4043 -35.4492 L 64.4043 -36.6699 C 64.4043 -38.6719 62.9883 -39.9902 61.084 -39.9902 L 36.7188 -39.9902 C 34.8145 -39.9902 33.3984 -38.6719 33.3984 -36.6699 L 33.3984 -35.4492 C 33.3984 -33.4473 34.8145 -32.0801 36.7188 -32.0801 Z"/>
  </g>
  <g id="Regular-S" transform="matrix(1 0 0 1 1401.5 696)">
   <path d="M 27.4902 0.390625 L 69.1895 0.390625 C 76.9043 0.390625 81.0547 -3.61328 81.0547 -11.3281 L 81.0547 -48.9746 C 84.8633 -49.707 86.9141 -52.5879 86.9141 -56.9336 L 86.9141 -62.6953 C 86.9141 -67.6758 84.2285 -70.8008 79.1992 -70.8008 L 17.4805 -70.8008 C 12.7441 -70.8008 9.76562 -67.6758 9.76562 -62.6953 L 9.76562 -56.9336 C 9.76562 -52.5879 11.7676 -49.707 15.5762 -48.9746 L 15.5762 -11.3281 C 15.5762 -3.61328 19.7266 0.390625 27.4902 0.390625 Z M 19.3848 -55.3711 C 17.4805 -55.3711 16.7969 -56.0547 16.7969 -57.959 L 16.7969 -61.6211 C 16.7969 -63.5254 17.4805 -64.209 19.3848 -64.209 L 77.3438 -64.209 C 79.248 -64.209 79.834 -63.5254 79.834 -61.6211 L 79.834 -57.959 C 79.834 -56.0547 79.248 -55.3711 77.3438 -55.3711 Z M 27.3926 -6.20117 C 24.3652 -6.20117 22.6074 -7.91016 22.6074 -10.9863 L 22.6074 -48.8281 L 74.0234 -48.8281 L 74.0234 -10.9863 C 74.0234 -7.91016 72.3145 -6.20117 69.2871 -6.20117 Z M 35.8887 -33.252 L 60.8398 -33.252 C 62.5 -33.252 63.7695 -34.4727 63.7695 -36.2305 L 63.7695 -37.5 C 63.7695 -39.2578 62.5 -40.4297 60.8398 -40.4297 L 35.8887 -40.4297 C 34.1797 -40.4297 32.959 -39.2578 32.959 -37.5 L 32.959 -36.2305 C 32.959 -34.4727 34.1797 -33.252 35.8887 -33.252 Z"/>
  </g>
  <g id="Light-S" transform="matrix(1 0 0 1 1105.4 696)">
   <path d="M 26.6113 -0.292969 L 68.8477 -0.292969 C 76.1719 -0.292969 80.0781 -4.10156 80.0781 -11.377 L 80.0781 -49.9023 C 83.6914 -50.4395 85.6934 -53.0762 85.6934 -57.0801 L 85.6934 -62.8906 C 85.6934 -67.2852 83.252 -70.1172 78.8086 -70.1172 L 16.6504 -70.1172 C 12.4023 -70.1172 9.76562 -67.2852 9.76562 -62.8906 L 9.76562 -57.0801 C 9.76562 -53.0762 11.7676 -50.4395 15.3809 -49.9023 L 15.3809 -11.377 C 15.3809 -4.05273 19.2871 -0.292969 26.6113 -0.292969 Z M 17.9688 -54.9316 C 16.0156 -54.9316 15.1855 -55.8594 15.1855 -57.7637 L 15.1855 -62.1582 C 15.1855 -64.1113 16.0156 -64.9902 17.9688 -64.9902 L 77.5391 -64.9902 C 79.4922 -64.9902 80.2734 -64.1113 80.2734 -62.1582 L 80.2734 -57.7637 C 80.2734 -55.8594 79.4922 -54.9316 77.5391 -54.9316 Z M 26.6113 -5.37109 C 22.8516 -5.37109 20.8008 -7.42188 20.8008 -11.1816 L 20.8008 -49.8535 L 74.6582 -49.8535 L 74.6582 -11.1816 C 74.6582 -7.42188 72.5586 -5.37109 68.8477 -5.37109 Z M 34.9609 -34.5215 L 60.498 -34.5215 C 62.0605 -34.5215 63.0859 -35.5469 63.0859 -37.1582 L 63.0859 -38.3301 C 63.0859 -39.9414 62.0605 -40.9668 60.498 -40.9668 L 34.9609 -40.9668 C 33.4473 -40.9668 32.4219 -39.9414 32.4219 -38.3301 L 32.4219 -37.1582 C 32.4219 -35.5469 33.4473 -34.5215 34.9609 -34.5215 Z"/>
  </g>
  <g id="Thin-S" transform="matrix(1 0 0 1 809.474 696)">
   <path d="M 25.4883 -1.12305 L 68.4082 -1.12305 C 75.1953 -1.12305 78.8086 -4.73633 78.8086 -11.4746 L 78.8086 -51.2207 C 82.1777 -51.416 84.1309 -53.7598 84.1309 -57.2266 L 84.1309 -63.1348 C 84.1309 -66.7969 81.9824 -69.2383 78.3203 -69.2383 L 15.5762 -69.2383 C 12.0117 -69.2383 9.76562 -66.7969 9.76562 -63.1348 L 9.76562 -57.2266 C 9.76562 -53.7598 11.7188 -51.416 15.0879 -51.2207 L 15.0879 -11.4746 C 15.0879 -4.6875 18.7012 -1.12305 25.4883 -1.12305 Z M 16.0645 -54.3945 C 14.1113 -54.3945 13.0859 -55.5664 13.0859 -57.5195 L 13.0859 -62.8906 C 13.0859 -64.8438 14.1113 -66.0156 16.0645 -66.0156 L 77.7832 -66.0156 C 79.7852 -66.0156 80.8105 -64.8438 80.8105 -62.8906 L 80.8105 -57.5195 C 80.8105 -55.5664 79.7852 -54.3945 77.7832 -54.3945 Z M 25.5371 -4.29688 C 20.8496 -4.29688 18.3594 -6.78711 18.3594 -11.4258 L 18.3594 -51.1719 L 75.4883 -51.1719 L 75.4883 -11.4258 C 75.4883 -6.78711 72.9004 -4.29688 68.3594 -4.29688 Z M 33.7891 -36.1816 L 60.1074 -36.1816 C 61.4258 -36.1816 62.207 -37.0117 62.207 -38.3789 L 62.207 -39.4531 C 62.207 -40.8203 61.4258 -41.6504 60.1074 -41.6504 L 33.7891 -41.6504 C 32.4707 -41.6504 31.6895 -40.8203 31.6895 -39.4531 L 31.6895 -38.3789 C 31.6895 -37.0117 32.4707 -36.1816 33.7891 -36.1816 Z"/>
  </g>
  <g id="Ultralight-S" transform="matrix(1 0 0 1 513.178 696)">
   <path d="M 24.9023 -1.5625 L 68.1641 -1.5625 C 74.6582 -1.5625 78.125 -5.07812 78.125 -11.5234 L 78.125 -51.9043 C 81.2988 -51.9043 83.3008 -54.1016 83.3008 -57.373 L 83.3008 -63.2812 C 83.3008 -66.5527 81.2988 -68.75 78.0273 -68.75 L 15.0391 -68.75 C 11.7676 -68.75 9.76562 -66.5527 9.76562 -63.2812 L 9.76562 -57.373 C 9.76562 -54.1016 11.7188 -51.9531 14.9414 -51.9043 L 14.9414 -11.5234 C 14.9414 -5.0293 18.3594 -1.5625 24.9023 -1.5625 Z M 15.1367 -54.0527 C 13.1348 -54.0527 11.9629 -55.4199 11.9629 -57.4219 L 11.9629 -63.2324 C 11.9629 -65.2344 13.1348 -66.5527 15.1367 -66.5527 L 77.9297 -66.5527 C 79.9316 -66.5527 81.1035 -65.2344 81.1035 -63.2324 L 81.1035 -57.4219 C 81.1035 -55.4199 79.9316 -54.0527 77.9297 -54.0527 Z M 25 -3.75977 C 19.8242 -3.75977 17.1387 -6.44531 17.1387 -11.5723 L 17.1387 -51.9043 L 75.9277 -51.9043 L 75.9277 -11.5723 C 75.9277 -6.44531 73.0469 -3.75977 68.0664 -3.75977 Z M 33.2031 -37.0117 L 59.8633 -37.0117 C 61.084 -37.0117 61.7188 -37.7441 61.7188 -39.0137 L 61.7188 -39.9902 C 61.7188 -41.2598 61.084 -41.9922 59.8633 -41.9922 L 33.2031 -41.9922 C 31.9336 -41.9922 31.3477 -41.2598 31.3477 -39.9902 L 31.3477 -39.0137 C 31.3477 -37.7441 31.9336 -37.0117 33.2031 -37.0117 Z"/>
  </g>
 </g>
</svg>
